<?xml version="1.0" encoding="utf-8"?>
<!-- Generator: Adobe Illustrator 27.9.0, SVG Export Plug-In . SVG Version: 6.00 Build 0)  -->
<svg version="1.1" xmlns="http://www.w3.org/2000/svg" xmlns:xlink="http://www.w3.org/1999/xlink" x="0px" y="0px"
	 viewBox="0 0 750 500" style="enable-background:new 0 0 750 500;" xml:space="preserve">
<style type="text/css">
	.st0{display:none;}
	.st1{clip-path:url(#XMLID_00000160899821854022926870000018074669704659625102_);fill:#E2F3FC;}
	.st2{opacity:0.56;clip-path:url(#XMLID_00000160899821854022926870000018074669704659625102_);fill:#007B8B;}
	.st3{clip-path:url(#XMLID_00000160899821854022926870000018074669704659625102_);}
	.st4{fill:#FFFFFF;}
	.st5{fill:#E9E9E9;}
	.st6{fill:#8ACBF1;}
	.st7{opacity:0.35;fill:#44BEDD;}
	.st8{fill:#25387A;}
	.st9{fill:#FFFFFB;}
	.st10{fill:none;stroke:#292929;stroke-width:0.75;stroke-miterlimit:10;}
	.st11{fill:#C71B18;}
	.st12{fill:#F8BE00;}
	.st13{fill:#4FAE32;}
	.st14{opacity:0.64;fill:#FFFFFF;}
	.st15{opacity:0.88;fill:#FFFFFF;}
	.st16{opacity:0.88;fill:#E6E6E6;}
	.st17{fill:#463014;}
	.st18{fill:#010202;}
	.st19{clip-path:url(#XMLID_00000160899821854022926870000018074669704659625102_);fill:#25387A;}
	.st20{fill:#E6E6E6;}
	.st21{fill:#CECDCD;}
	.st22{fill:#F7D3D2;}
	.st23{fill:#E4C4C4;}
	.st24{fill:#EF7E88;}
	.st25{fill:#EC668E;}
	.st26{fill:#D16E7A;}
	.st27{fill:#F8C6CC;}
	.st28{fill:#644D9B;}
	.st29{opacity:0.56;}
	.st30{fill:#C44C4C;}
	.st31{fill:#594890;}
	.st32{fill:#43366F;}
	.st33{fill:#76C2E9;}
	.st34{fill:#1F78BE;}
	.st35{opacity:0.7;}
	.st36{fill:#004746;}
	.st37{fill:none;stroke:#39AFC7;stroke-width:0.75;stroke-miterlimit:10;stroke-dasharray:3.9735,3.9735;}
	.st38{fill:none;stroke:#39AFC7;stroke-width:0.75;stroke-miterlimit:10;}
	.st39{fill:none;stroke:#39AFC7;stroke-width:0.75;stroke-miterlimit:10;stroke-dasharray:4.4444,4.4444;}
	.st40{fill:none;stroke:#39AFC7;stroke-width:0.75;stroke-miterlimit:10;stroke-dasharray:4.8411,4.8411;}
	.st41{fill:none;stroke:#39AFC7;stroke-width:0.75;stroke-miterlimit:10;stroke-dasharray:4.6295,4.6295;}
	.st42{fill:none;stroke:#39AFC7;stroke-width:0.75;stroke-miterlimit:10;stroke-dasharray:3.0777,3.0777;}
	.st43{fill:none;stroke:#FFFFFF;stroke-width:0.5;stroke-miterlimit:10;}
	.st44{fill:#292928;}
	.st45{fill:#181818;}
	.st46{fill:#E3E2E0;}
	.st47{fill:none;}
	.st48{fill:#FAD3D7;}
	.st49{fill:#F7A81E;}
	.st50{fill:#C17A12;}
	.st51{fill:#A96B15;}
	.st52{fill:#423972;}
	.st53{fill:#EBCACF;}
	.st54{fill:#E61B45;}
	.st55{fill:#42356D;}
	.st56{fill:#A59194;}
	.st57{fill:#F39FA2;}
	.st58{fill:#56458B;}
	.st59{fill:#3B3368;}
	.st60{fill:#1D422B;}
	.st61{fill:#4E4E4C;}
	.st62{fill:#929292;}
	.st63{fill:#262625;}
	.st64{fill:#C98585;}
	.st65{fill:#030505;}
	.st66{fill:#E6C6C6;}
	.st67{fill:#DE9B9B;}
	.st68{fill:#E33959;}
	.st69{fill:#645757;}
	.st70{opacity:0.88;}
	.st71{fill:#FAB600;}
</style>
<g id="BACKGROUND" class="st0">
</g>
<g id="OBJECTS">
	<g id="XMLID_412_">
		<g id="XMLID_267_">
			<g id="XMLID_34_">
				<defs>
					<path id="XMLID_198_" d="M122,196.33c0,0,8-77.33,48.67-92.67c16.6-6.26,33.58-8.43,51.2-8.69c6.59-0.1,12.99,0.64,19.09-2.14
						c8.51-3.88,14.92-11.41,21.9-17.39c12.02-10.29,26.79-17.33,42.33-20.29c16.63-3.17,33.8-2.29,50.19-7.05
						c27.94-8.12,52.05-9.82,80.99-6.88c22,2.23,43.01,8.87,62.47,19.34c14.27,7.68,26.19,19.74,41.25,25.91
						c20.02,8.21,41.86,4.95,62.26,11.29c17.86,5.55,34.49,16.22,43.84,32.81c14.75,26.18,14.34,60.52,8.47,89.1
						c-3.42,16.65,0.68,30.18,12.88,41.86c24.17,23.15,29.39,61.2,31.07,93.19c1.36,25.89-10.4,45.89-32.71,58.61
						c-43.13,24.61-91.42,24.51-139.61,22.87c-17.35-0.59-34.71-1.27-52.06-0.61c-16.84,0.64-32.92,5.21-49.73,6.12
						c-14.71,0.8-29.58-0.8-44.1-3.13c-17.26-2.77-32.54-12.62-49.44-16.76c-27.51-6.73-56.17,1.32-83.23,6.62
						c-29.66,5.81-60.76,9.54-91.36,10.8c-27.34,1.12-59.14,3.61-83.69-10.88c-31.15-18.4-29.62-62.13-25.9-93.41
						c3.34-28.02,14.48-47.97,38.53-63.28C114.67,253,118,242.33,122,196.33z"/>
				</defs>
				<clipPath id="XMLID_00000141414265187865745520000013867279788232864644_">
					<use xlink:href="#XMLID_198_"  style="overflow:visible;"/>
				</clipPath>
				<path id="XMLID_58_" style="clip-path:url(#XMLID_00000141414265187865745520000013867279788232864644_);fill:#E2F3FC;" d="
					M122,196.33c0,0,8-77.33,48.67-92.67c16.6-6.26,33.58-8.43,51.2-8.69c6.59-0.1,12.99,0.64,19.09-2.14
					c8.51-3.88,14.92-11.41,21.9-17.39c12.02-10.29,26.79-17.33,42.33-20.29c16.63-3.17,33.8-2.29,50.19-7.05
					c27.94-8.12,52.05-9.82,80.99-6.88c22,2.23,43.01,8.87,62.47,19.34c14.27,7.68,26.19,19.74,41.25,25.91
					c20.02,8.21,41.86,4.95,62.26,11.29c17.86,5.55,34.49,16.22,43.84,32.81c14.75,26.18,14.34,60.52,8.47,89.1
					c-3.42,16.65,0.68,30.18,12.88,41.86c24.17,23.15,29.39,61.2,31.07,93.19c1.36,25.89-10.4,45.89-32.71,58.61
					c-43.13,24.61-91.42,24.51-139.61,22.87c-17.35-0.59-34.71-1.27-52.06-0.61c-16.84,0.64-32.92,5.21-49.73,6.12
					c-14.71,0.8-29.58-0.8-44.1-3.13c-17.26-2.77-32.54-12.62-49.44-16.76c-27.51-6.73-56.17,1.32-83.23,6.62
					c-29.66,5.81-60.76,9.54-91.36,10.8c-27.34,1.12-59.14,3.61-83.69-10.88c-31.15-18.4-29.62-62.13-25.9-93.41
					c3.34-28.02,14.48-47.97,38.53-63.28C114.67,253,118,242.33,122,196.33z"/>
				
					<path id="XMLID_96_" style="opacity:0.56;clip-path:url(#XMLID_00000141414265187865745520000013867279788232864644_);fill:#007B8B;" d="
					M408.96,374.96c-120.93,1.92-241.88,4.28-362.75,8.65c2.72,18.27,10.05,35.04,26.49,44.75c24.54,14.49,56.35,12.01,83.69,10.88
					c30.6-1.26,61.7-4.99,91.36-10.8c27.06-5.3,55.72-13.36,83.23-6.62c16.9,4.14,32.18,13.99,49.44,16.76
					c14.52,2.33,29.39,3.93,44.1,3.13c16.82-0.91,32.89-5.48,49.73-6.12c17.35-0.66,34.72,0.02,52.06,0.61
					c48.19,1.64,96.48,1.74,139.61-22.87c16.25-9.27,26.89-22.4,30.95-38.85C600.91,372.56,504.95,373.43,408.96,374.96z"/>
				<g id="XMLID_4_" style="clip-path:url(#XMLID_00000141414265187865745520000013867279788232864644_);">
					<polygon id="XMLID_38_" class="st4" points="186,135.67 566,135.67 566,398.33 186.67,398.33 					"/>
					<path id="XMLID_299_" class="st5" d="M373.78,145.05c1.02-0.79,1.46-2.36,2.12-3.43c1.01-1.64,2.62-3.72,4.66-4.05
						c1.09-0.18,2.25,0.15,3.31,0.37c1.85,0.38,3.69,0.73,5.57,0.94c6.84,0.77,14.99,0.64,20.99-3.22h-39.66
						c-0.72,2.02-0.44,4.68-0.25,6.66C370.69,144.14,371.35,146.94,373.78,145.05z"/>
					<polygon id="XMLID_143_" class="st6" points="194.24,143.67 558.43,143.67 558.43,390.33 194.88,390.33 					"/>
					<path id="XMLID_313_" class="st7" d="M375.72,153c-0.47-3.08-0.64-6.21-0.56-9.33h-3.68c-0.38,4.1-0.04,8.34-0.04,12.38
						c0.01,6.21-0.58,12.73-1.69,18.84c-0.56,3.06-2.23,5.5-2.17,8.7c0.05,2.88,0.63,5.77,0.37,8.66c-0.47,5.2-4.92,6.71-8.5,9.51
						c2.23-0.07,4.48,0.08,6.7,0.02c2.88-0.08,6.3,0.02,6.72-3.49c0.32-2.64-0.19-5.33,0.03-7.98c0.19-2.34,1.33-4.22,2.36-6.29
						c2.64-5.33,2.22-10.24,1.5-15.9C376.13,163.12,375.48,158.05,375.72,153z"/>
					<path id="XMLID_66_" class="st8" d="M334.37,233.18l1.19-2.77l-6.55-5.28l-2.45,1.95c-2.42-1.3-5.78-1.91-6.36-1.57
						s-2.3-2.34-2.75-2.81c-0.46-0.47-5.56,0.18-6.5,1.1s-1.32,4.51-1.32,4.51c-3.6,0.54-6.2,5.85-6.2,5.85l-2.9,0.09l-2.38,6.7
						l4.02,3.4c-0.71,1.85,0.54,4.53,0.54,4.53s-1.87,1.37-2.22,2.18c-0.36,0.81,3.99,6.88,3.99,6.88l3.95-0.89
						c0.81,0.59,4.61,3.06,4.61,3.06s0.56,2.21,0.9,2.79c0.34,0.58,9.03,1.25,9.03,1.25l0.5-2.2c0.13,0.02,0.29,0.03,0.56,0.01
						c1.51-0.1,4.66-2.27,4.66-2.27l3.46,2.12l5.73-4.93l-1.23-4.3c1.99-2.18,1.21-5.32,1.21-5.32l2.68-1.02l0.3-6.95l-4.16-1.66
						C335.99,233.66,334.37,233.18,334.37,233.18z M326.72,251.25c-4.17,4.09-10.86,4.02-14.95-0.14
						c-4.09-4.17-4.02-10.86,0.14-14.95c4.17-4.09,10.86-4.02,14.95,0.14C330.95,240.46,330.89,247.16,326.72,251.25z"/>
					<path id="XMLID_182_" class="st8" d="M364.67,255l0.72-1.67l-3.96-3.19l-1.48,1.18c-1.46-0.78-3.49-1.15-3.84-0.95
						c-0.35,0.21-1.39-1.41-1.66-1.7c-0.28-0.28-3.36,0.11-3.93,0.66s-0.8,2.72-0.8,2.72c-2.17,0.33-3.74,3.53-3.74,3.53l-1.75,0.05
						l-1.44,4.05l2.43,2.05c-0.43,1.12,0.32,2.73,0.32,2.73s-1.13,0.83-1.34,1.32c-0.21,0.49,2.41,4.15,2.41,4.15l2.38-0.54
						c0.49,0.35,2.78,1.85,2.78,1.85s0.34,1.33,0.54,1.69c0.21,0.35,5.45,0.75,5.45,0.75l0.3-1.33c0.08,0.01,0.18,0.02,0.34,0
						c0.91-0.06,2.81-1.37,2.81-1.37l2.09,1.28l3.46-2.98l-0.74-2.6c1.2-1.32,0.73-3.21,0.73-3.21l1.62-0.61l0.18-4.2l-2.51-1
						C365.64,255.29,364.67,255,364.67,255z M360.05,265.91c-2.52,2.47-6.56,2.43-9.03-0.09c-2.47-2.52-2.43-6.56,0.09-9.03
						c2.52-2.47,6.56-2.43,9.03,0.09C362.6,259.4,362.56,263.44,360.05,265.91z"/>
					<g id="XMLID_187_">
						<polygon id="XMLID_43_" class="st9" points="536.67,164.33 536.67,358.33 396,358.33 396,163.67 						"/>
						<g id="XMLID_80_">
							<line id="XMLID_104_" class="st10" x1="406" y1="189" x2="525.33" y2="189"/>
							<line id="XMLID_105_" class="st10" x1="406" y1="210.33" x2="525.33" y2="210.33"/>
							<line id="XMLID_106_" class="st10" x1="406" y1="230.33" x2="525.33" y2="230.33"/>
							<line id="XMLID_107_" class="st10" x1="406" y1="251" x2="525.33" y2="251"/>
							<line id="XMLID_108_" class="st10" x1="406" y1="270.33" x2="525.33" y2="270.33"/>
							<line id="XMLID_109_" class="st10" x1="406" y1="289" x2="525.33" y2="289"/>
							<line id="XMLID_110_" class="st10" x1="406" y1="309.67" x2="525.33" y2="309.67"/>
							<line id="XMLID_111_" class="st10" x1="406" y1="330.33" x2="525.33" y2="330.33"/>
						</g>
					</g>
					<g id="XMLID_177_">
						<circle id="XMLID_95_" class="st11" cx="193" cy="139.67" r="1.67"/>
						<circle id="XMLID_178_" class="st12" cx="199.25" cy="139.67" r="1.67"/>
						<circle id="XMLID_179_" class="st13" cx="205.92" cy="139.67" r="1.67"/>
					</g>
					<g id="XMLID_180_">
						<path id="XMLID_310_" class="st14" d="M244.35,178.82c0,0-3.83,5.42-5.92,6.04C236.34,185.48,241.35,177.65,244.35,178.82z"/>
						<path id="XMLID_309_" class="st14" d="M238.68,186.84c0,0-1.26,2.24-2.1,2.63S237.34,186.66,238.68,186.84z"/>
						<g id="XMLID_344_">
							<g id="XMLID_296_">
								<g id="XMLID_306_">
									<polygon class="st4" points="216.67,162.53 225.05,162.94 225.32,162.95 225.31,163.22 224.91,170.69 224.74,170.51 
										231.32,170.6 231.42,170.6 231.41,170.69 231.03,177.27 231.24,170.68 231.32,170.77 224.74,170.85 224.57,170.86 
										224.57,170.68 224.78,163.19 225.03,163.47 216.67,163.28 216.67,162.53 									"/>
								</g>
								<g id="XMLID_303_">
									<polygon class="st4" points="206.77,185.19 213.86,180.69 214.09,180.54 214.23,180.77 218.21,187.1 217.97,187.06 
										223.4,183.33 223.47,183.28 223.52,183.35 227,188.95 223.38,183.45 223.5,183.47 218.17,187.33 218.03,187.44 
										217.93,187.29 213.78,181.06 214.15,181.14 207.2,185.8 206.77,185.19 									"/>
								</g>
								<g id="XMLID_300_">
									<path class="st4" d="M301.42,163.28l-8.37,0.19l0.26-0.28l0.2,7.48c0,0,0,0.18,0,0.18l-0.17,0l-6.58-0.08l0.08-0.09
										l0.21,6.58l-0.38-6.58c-0.01-0.11-0.02-0.09,0.09-0.09c0,0,6.58-0.08,6.58-0.08l-0.17,0.18l-0.4-7.47l-0.01-0.26
										c0,0,0.27-0.01,0.27-0.01s8.39-0.41,8.39-0.41S301.42,163.28,301.42,163.28L301.42,163.28z"/>
								</g>
								<g id="XMLID_297_">
									<path class="st4" d="M310.88,185.8l-6.94-4.67l0.37-0.08l-4.15,6.23l-0.1,0.15l-0.14-0.1l-5.33-3.86
										c0,0,0.12-0.02,0.12-0.02s-3.62,5.5-3.62,5.5l3.48-5.6c0.06-0.09,0.03-0.08,0.12-0.02c0,0,5.43,3.73,5.43,3.73l-0.24,0.05
										l3.99-6.33l0.14-0.22l0.23,0.14l7.09,4.5C311.31,185.19,310.88,185.8,310.88,185.8L310.88,185.8z"/>
								</g>
							</g>
							<g id="XMLID_343_">
								<path id="XMLID_320_" class="st15" d="M288.29,195.39c-4.32-34.46-56.39-31.64-56.52,3.25
									c-0.04,10.25,3.79,23.36,14.6,26.97c6.32,2.12,1.02,21.66,6.91,21.66h1.05h11.62c0,0,0.99,0,1.05,0
									c6-0.11,1.11-19.72,6.91-21.66C286.19,221.51,289.86,207.87,288.29,195.39z"/>
								<path id="XMLID_319_" class="st16" d="M288.29,195.39c-1.61-12.88-9.9-20.55-19.65-23.29c6.33,3.39,11.51,9.29,14.4,15.64
									c10.44,22.93-11.06,44.68-33.16,47.15c0.33,5.9,0.01,12.37,3.4,12.37h1.05h11.62c0,0,0.99,0,1.05,0
									c6-0.11,1.11-19.72,6.91-21.66C286.19,221.51,289.86,207.87,288.29,195.39z"/>
								<path id="XMLID_318_" class="st17" d="M248.51,227.63c2.83,5.54-0.23,19.63,4.77,19.63h1.05h11.62c0,0,0.99,0,1.05,0
									c5.11-0.09,2.33-14.3,4.96-19.73C264.16,227.73,256.34,227.66,248.51,227.63z"/>
								<g id="XMLID_342_">
									<g id="XMLID_315_">
										<path class="st17" d="M247.78,190.93c2.34,6.85,4.57,13.73,6.72,20.64c0,0-0.33-0.24-0.33-0.24
											c4.39-0.04,8.77-0.03,13.16,0l-0.32,0.23c2.28-6.64,4.63-13.26,7.09-19.83c-2.05,6.72-4.21,13.4-6.45,20.05
											c0,0-0.08,0.23-0.08,0.23s-0.25,0-0.25,0c-4.47,0.03-8.95,0.04-13.42,0C251.78,205.01,249.72,197.98,247.78,190.93
											L247.78,190.93z"/>
									</g>
									<g id="XMLID_312_">
										<path class="st17" d="M249.77,198.9c2.44,0.86,6.16,0.88,6.53-2.38c0.25-1.89,0.17-4.21-1.1-5.68
											c-0.37-0.33-0.53-0.22-0.74,0.07c-0.87,2.53-1.61,8.17,2.02,8.7c3.15,0.29,7.06,0.5,9.56-1.69
											c1.86-1.75,1.52-5.17,0.02-7.04c-0.35-0.38-0.76-0.69-1.19-0.28c-1.84,2.36-0.85,8.12,1.01,10.31
											c0.2,0.19,0.5,0.26,0.85,0.27c2.06,0.08,4.14-0.34,6.18-0.68c-2.03,0.51-4.08,1.02-6.2,1.06
											c-0.34,0.01-0.77-0.05-1.1-0.31c-1.34-1.26-1.75-3.16-2.15-4.86c-0.3-1.73-0.47-3.65,0.21-5.36
											c0.48-1.5,1.94-2.01,3.03-0.72c1.87,2.34,2.22,6.06,0.02,8.3c-2.81,2.56-6.87,2.29-10.37,1.93
											c-4.29-0.74-3.72-6.31-2.78-9.48c0.33-0.99,1.28-1.59,2.12-0.71c1.44,1.75,1.44,4.17,1.1,6.27
											C256.2,200.06,252.33,200.05,249.77,198.9L249.77,198.9z"/>
									</g>
									<path id="XMLID_311_" class="st17" d="M258.47,227.93c0,0-0.12-17.99,1.8-16.67c1.92,1.31,0.94,17.64,0.94,17.64
										L258.47,227.93z"/>
								</g>
								<g id="XMLID_281_">
									<path class="st18" d="M249.77,231.81c6.97-0.51,13.97-0.51,20.94,0C263.74,232.32,256.74,232.32,249.77,231.81
										L249.77,231.81z"/>
								</g>
								<g id="XMLID_278_">
									<path class="st18" d="M249.77,236c6.97-0.51,13.97-0.51,20.94,0C263.74,236.51,256.74,236.51,249.77,236L249.77,236z"/>
								</g>
								<g id="XMLID_275_">
									<path class="st18" d="M250.17,240.78c6.84-0.51,13.71-0.51,20.54,0C263.88,241.3,257.01,241.29,250.17,240.78
										L250.17,240.78z"/>
								</g>
								<g id="XMLID_272_">
									<path class="st18" d="M250.37,244.77c6.24-0.51,12.51-0.51,18.75,0C262.88,245.29,256.61,245.28,250.37,244.77
										L250.37,244.77z"/>
								</g>
							</g>
						</g>
					</g>
					<line id="XMLID_264_" class="st8" x1="215.33" y1="320.33" x2="365.33" y2="320.33"/>
					<line id="XMLID_265_" class="st8" x1="215.33" y1="338.33" x2="365.33" y2="338.33"/>
					<line id="XMLID_266_" class="st8" x1="215.33" y1="356.33" x2="365.33" y2="356.33"/>
				</g>
				<path id="XMLID_63_" style="clip-path:url(#XMLID_00000141414265187865745520000013867279788232864644_);fill:#25387A;" d="
					M582.75,174.12l2.12-0.88l-0.75-6.38l-2.38-0.25c-0.62-2-2.12-4.12-2.62-4.25s0-2.5,0-3S576,156.5,575,156.5
					s-3.12,1.75-3.12,1.75c-2.25-1.62-6.5-0.12-6.5-0.12l-1.62-1.5l-4.88,2.38l0.38,4c-1.38,0.62-2.12,2.75-2.12,2.75
					s-1.75-0.25-2.38,0s-1.5,5.88-1.5,5.88l2.62,1.62c0.12,0.75,0.88,4.12,0.88,4.12s-0.88,1.5-1,2s4.25,5.5,4.25,5.5l1.45-0.93
					c0.06,0.08,0.15,0.17,0.3,0.31c0.88,0.75,3.75,1.25,3.75,1.25l0.75,3l5.75,0.38l1.62-3c2.25-0.12,3.5-2.25,3.5-2.25l2,0.88
					l3.88-3.62l-1.38-3.12C583.38,175.25,582.75,174.12,582.75,174.12z M568.94,179.88c-4.45,0-8.06-3.61-8.06-8.06
					c0-4.45,3.61-8.06,8.06-8.06s8.06,3.61,8.06,8.06C577,176.27,573.39,179.88,568.94,179.88z"/>
				<g id="XMLID_94_" style="clip-path:url(#XMLID_00000141414265187865745520000013867279788232864644_);">
					<g id="XMLID_197_">
						<path id="XMLID_51_" class="st20" d="M593.33,353.17c-5.17-5.83-14.17,1.5-16.83,4.33c-2.67,2.83-18-1.33-18-1.33
							s1.83,24.5,2,27.17s1.17,37,1.17,37s-6.83-2.33-9.67-2.5s-4.67,0.83-2.33,3.67c2.33,2.83,19.67,10.83,21.33,10
							c1.67-0.83,0.33-4.5,0.33-4.5c10,7.67,12.5,6.5,14,6.17C586.83,432.83,593.8,353.7,593.33,353.17z M571.5,421l1.33-60.17
							l4.67-0.33c0,0,2,39.5,2.17,42.67c0.17,3.17,0.33,22,0.33,22S573.83,421.33,571.5,421z"/>
						<path id="XMLID_123_" d="M571.45,427.37c-0.07-0.23,0.11-0.37,0.11-0.37c0.03,0.02-0.17,0.04-0.14,0.07
							c0.11-2.38,0.11-4.75,0.11-7.07c0-0.04-0.35,0.09-0.34,0.05c-3.25,0.52-6.78-0.88-9.62-3.03c0.06,2.05,0.1,3.31,0.1,3.31
							s-6.83-2.33-9.67-2.5s-4.67,0.83-2.33,3.67c2.33,2.83,19.67,10.83,21.33,10c0.56-0.28,0.78-0.88,0.82-1.55
							C571.66,429.09,571.55,428.23,571.45,427.37z"/>
						<path id="XMLID_85_" class="st21" d="M572.74,364.92l0.09-4.08l4.67-0.33c0,0,0.08,1.65,0.22,4.29
							c3.96-4.62,9.53-7.25,15.41-7.24c0.19-2.71,0.27-4.31,0.2-4.39c-5.17-5.83-14.17,1.5-16.83,4.33c-2.67,2.83-18-1.33-18-1.33
							s0.19,2.53,0.45,6.05C563.66,362.56,568.3,363.35,572.74,364.92z"/>
						<path id="XMLID_125_" d="M579.98,423.08c0.01,1.29,0.02,2.09,0.02,2.09s-6.01-3.73-8.4-4.15c0.07,2.02-0.02,4.03-0.18,6.04
							c9.93,7.6,12.43,6.44,13.92,6.11c0.3-0.07,0.82-3.31,1.46-8.44C584.37,425.36,581.81,424.89,579.98,423.08z"/>
						<path id="XMLID_44_" d="M598.17,322.67c0,0,3.5,3,3.17,17.33c-0.33,14.33-0.83,16.67-3.5,16.33c-2.67-0.33-7.83-4-11.17-3
							c-3.33,1-6.67,9.17-15.5,7.83c-8.83-1.33-6.33-4.17-13-3.5c-6.67,0.67-7.83-2.83-7.83-4c0-1.17,1.5-22.33,2-22.5
							c0.5-0.17,12.33,0.83,17-2c4.67-2.83,5-8.33,11.5-7.17S598.17,322.67,598.17,322.67z"/>
					</g>
					<g id="XMLID_196_">
						<g id="XMLID_195_">
							<path id="XMLID_53_" class="st22" d="M500.38,272.25c0,0-4-7.62-4.5-11.38s1.25-4.88,1.25-4.5s0.88-3.12,1.38-3.12
								s1.38-1.12,1.75-0.88s0.5,1.25,0.5,1.25s1-1.25,1.88-0.12s0.62,3.62,0.62,3.62s1-2.38,1.88-2s1.5,7.62,2.5,8s-0.5,0-0.5,0
								s-1.5,6.62-3.25,6.88S500.38,272.25,500.38,272.25z"/>
							<path id="XMLID_392_" class="st23" d="M507.62,263.12c-0.19-0.07-0.37-0.39-0.53-0.86c-0.73,1.32-1.42,2.68-2.41,3.87
								c-1.54,1.84-3.55,2.82-5.17,4.39c0.51,1.04,0.86,1.72,0.86,1.72s1.75-2,3.5-2.25s3.25-6.88,3.25-6.88
								S508.62,263.5,507.62,263.12z"/>
							<g id="XMLID_181_">
								<g id="XMLID_185_">
									<path class="st24" d="M500.75,253.62c-0.26,2.03-0.17,4.12,0.58,6.04C500.26,257.88,500.15,255.59,500.75,253.62
										L500.75,253.62z"/>
								</g>
								<g id="XMLID_186_">
									<path class="st24" d="M503.4,256.79c-0.08,1.78,0.1,3.52,0.29,5.29C503.17,260.39,502.98,258.53,503.4,256.79L503.4,256.79
										z"/>
								</g>
								<g id="XMLID_207_">
									<path class="st24" d="M498.58,253.58c-0.04,2.45-0.03,4.98,1,7.25C498.23,258.72,498.2,255.99,498.58,253.58L498.58,253.58
										z"/>
								</g>
								<g id="XMLID_208_">
									<path class="st24" d="M496.83,256.67c0.24,2.22,0.12,4.72,1.5,6.58C496.67,261.6,496.72,258.86,496.83,256.67
										L496.83,256.67z"/>
								</g>
							</g>
						</g>
						<g id="XMLID_194_">
							<path id="XMLID_57_" class="st22" d="M541,214.12c-0.38-0.38-10.38-11.12-8.75-13.12c0,0,3,1.88,3.75,3.12l0.62-7.75
								c0,0,1.62-1.12,4.25,1.25s6.5,7.38,6.5,7.38l0.88,1.5L541,214.12z"/>
							<path id="XMLID_396_" class="st23" d="M547.38,205c0,0-3.88-5-6.5-7.38s-4.25-1.25-4.25-1.25l-0.01,0.1
								c3.21,1.08,7.17,3.5,8.27,6.59c0.52,1.47-0.05,2.39-1.22,3.32c-1.17,0.93-2.32,1.7-3.35,2.81c-0.65,0.69-1.29,1.35-2,1.95
								c1.42,1.65,2.55,2.86,2.67,2.98l7.25-7.62L547.38,205z"/>
						</g>
						<path id="XMLID_45_" class="st25" d="M499.17,276.33c-0.43-0.33,0.09-2.64,0.21-3.03c0.53-1.71,1.69-2.39,3.2-3.23
							c1.8-1,2.81-2.63,3.54-4.51c0.71-1.84,1.7-4.53,4.21-2.73c3.07,2.2,5.11,6.01,7.91,8.59c9.69,8.92,22.53,12.1,35.2,8.07
							c8.23-2.62,16.81-9.33,13.73-18.99c-5-15.67-6.67-17.17-9.67-21.83c-3-4.67-8.83-9.67-10.83-15c-2-5.33-8.33-1.83-10.33-6.67
							c0,0,1.83-4,4.5-6.33c2.67-2.33,6-6.83,9.67-6.5c0,0,3.5,2.17,6,7c2.5,4.83,8.83,10.83,14.17,17.5
							c5.33,6.67,6.17,11.33,7.67,14.83c2.25,5.24,3.43,11.22,5.19,16.67c2.48,7.69,4.62,15.57,7.31,23.17
							c2.08,5.87,2.81,12.34,4.63,18.38c2.01,6.67,6.38,11.85,9.36,18.04c0.15,0.3,0.29,0.63,0.24,0.96
							c-0.04,0.27-0.2,0.5-0.36,0.71c-4.45,5.92-13.45,4.49-19.76,3.45c-2.09-0.34-4.67-1.53-6.77-0.72
							c-1.65,0.64-2.48,2.43-3.52,3.86c-2.81,3.86-7.25,4.76-11.73,4.12c-2.84-0.4-5.2-0.5-7.9,0.52c-1.93,0.73-4.83,2.03-6.47,0.05
							c-0.39-0.47-0.54-1.09-0.66-1.69c-0.93-4.55-0.92-9.3,0.14-13.82c1.06-4.51,1.62-9.35,0.3-13.87
							c-0.13-0.45-5.3-1.34-5.98-1.53c-2.22-0.63-4.42-1.33-6.58-2.14c-4.19-1.56-7.99-3.59-11.79-5.92
							C515.35,288.44,507.18,282.51,499.17,276.33z"/>
						<path id="XMLID_280_" class="st26" d="M567.17,260.5c0.03,0.09,0.05,0.18,0.08,0.28c0.68-3,0.6-6.19-0.1-9.22
							c-1.42-6.12-5.35-11.37-9.25-16.14c-1.8-2.2-3.64-4.38-5.35-6.66c-1.69-2.26-2.83-4.8-4.45-7.09
							c-1.94-2.76-4.52-3.35-7.52-4.37c-1.29-0.44-2.48-0.95-3.43-1.85c-0.52,0.91-0.81,1.55-0.81,1.55c2,4.83,8.33,1.33,10.33,6.67
							c2,5.33,7.83,10.33,10.83,15C560.5,243.33,562.17,244.83,567.17,260.5z"/>
						<path id="XMLID_285_" class="st26" d="M590.99,289.38c-1.36,0.7-2.52,1.69-3.91,2.35c-2.4,1.14-4.75,0.53-7.31,0.55
							c-3.34,0.04-6.31,1.51-8.88,3.58c-1.68,1.35-3.3,2.97-5.29,3.87c-1.33,0.6-2.81,0.65-3.76-0.65
							c-0.51-0.69-0.58-1.59-0.67-2.42c-0.18-1.75-0.49-3.22-1.31-4.8c-2.22-4.27-6.24-7.43-7.96-11.92
							c-1.66,0.45-3.32,0.77-4.98,0.98c-0.21,3.57,2.55,6.19,4.56,8.9c2.12,2.85,2.59,5.33,2.39,8.86
							c-0.25,4.41-1.09,9.7,3.62,12.09c3.61,1.83,7.93,0.98,11.18-1.18c2.05-1.37,3.51-3.17,4.63-5.35c0.82-1.59,1.47-3.33,2.78-4.6
							c2.64-2.58,6.09-1.77,9.42-1.96c3.4-0.2,6.09-1.51,8.11-3.5c-0.39-1.8-0.77-3.59-1.19-5.37
							C591.93,288.95,591.46,289.15,590.99,289.38z"/>
						<path id="XMLID_209_" class="st24" d="M523.02,293.14c-1.32-0.92-2.65-1.84-4.06-2.59
							C520.3,291.43,521.65,292.29,523.02,293.14z"/>
						<path id="XMLID_282_" class="st26" d="M549.48,323.66c-0.16-3.26,0.98-6.25,1.18-9.46c0.21-3.24,0.11-7.35-0.8-10.47
							c-0.4-1.37-1.08-1.46-2.34-1.77c-1.7-0.42-3.38-0.95-5.09-1.37c-3.62-0.9-7.08-2.16-10.65-3.22
							c-1.55-0.46-2.99-0.99-4.37-1.64c2.69,1.5,5.42,2.83,8.36,3.92c2.16,0.81,4.36,1.51,6.58,2.14c0.68,0.19,5.85,1.08,5.98,1.53
							c1.32,4.52,0.76,9.35-0.3,13.87c-1.06,4.52-1.07,9.28-0.14,13.82c0.12,0.6,0.27,1.22,0.66,1.69c1.03,1.24,2.55,1.19,4.02,0.81
							C550.79,330.54,549.66,327.2,549.48,323.66z"/>
						<g id="XMLID_193_">
							<path id="XMLID_48_" class="st22" d="M547.88,243.75c0,0-3.5,5.25-4.62,4.88s-2.5-0.75-2.75,0.88s1.12,3.12,1.12,3.12
								s-1.12,2.75-0.88,3.62s-1.12,5-0.12,7.75s0.5,4.88,8.88,11l1.5,0.62c0,0-1.12-12.88,0-14.62s4.5-7.62,4-8.12
								S547.88,243.75,547.88,243.75z"/>
							<path id="XMLID_390_" class="st27" d="M555,252.88c-0.5-0.5-7.12-9.12-7.12-9.12s-0.76,1.14-1.68,2.31
								c0.54,0.81,1.15,1.58,1.85,2.31c0.93,0.97,2.1,1.79,2.95,2.83c1.12,1.39,1.06,2.81,0.03,4.23c-0.75,1.04-1.85,1.8-2.55,2.87
								c-1.13,1.75-1.1,4.31-1.11,6.3c-0.02,3.07,0.33,6.12,0.53,9.18c0.49,0.38,1.02,0.78,1.6,1.2l1.5,0.62c0,0-1.12-12.88,0-14.62
								S555.5,253.38,555,252.88z"/>
							<g id="XMLID_376_">
								<g id="XMLID_366_">
									<g id="XMLID_52_">
										<path d="M546.12,249.88c-0.43,1.66-1.46,4.27-1.42,5.92c0.12,0.45,0.02,0.49,0.49,0.25c1.22-0.86,2.15-2.17,3.18-3.29
											c-0.45,0.96-0.97,1.87-1.63,2.71c-0.51,0.72-2,2.27-2.67,0.89c-0.39-1.26,0.23-2.57,0.61-3.67
											C545.08,251.7,545.56,250.77,546.12,249.88L546.12,249.88z"/>
									</g>
									<g id="XMLID_54_">
										<path class="st28" d="M547.12,248.62c0.93-0.69,2.33,0.05,2.71,1.04c0.43,0.96,0.43,2,0.04,2.96
											c-0.22-0.47-0.35-0.91-0.49-1.34C548.96,250.05,548.66,248.95,547.12,248.62L547.12,248.62z"/>
									</g>
									<g id="XMLID_55_" class="st29">
										<path class="st30" d="M540.75,257.5c0.96,1.26,1.61,2.28,2.63,3.5C541.8,260.72,540.66,259.06,540.75,257.5L540.75,257.5z
											"/>
									</g>
								</g>
								<g id="XMLID_368_">
									<path id="XMLID_47_" class="st28" d="M546.75,244.75c0,0-0.75-2.88,1.5-3.12s13.38-5.25,21,2.75s4.62,20.88,11.5,26.62
										s14.38,11.25,13.88,15.5s-4.62,9.25-9.88,8.88s-5.62-0.88-7.5,0.88s-9.38,11.5-14.12,13s-7.5,0.12-8.12-2.75
										s1-2.38,0.5-7.88s-0.25-7.12-3.25-11s-4-7-2.88-10.25s-0.38-5.88-0.12-9.12s-0.75-7.38,1.25-9.88s2.88-4.5,2.75-5
										S547.75,245.62,546.75,244.75z"/>
									<path id="XMLID_389_" class="st31" d="M547.12,245.14c4.69-3.03,10.03-5.37,15.68-3.31c4.95,1.81,8.13,6.55,10.04,11.23
										c1.23,3.03,2.08,6.2,2.92,9.36c0.86,3.24,1.43,6.73,3.74,9.29c4.27,4.73,10.45,7.1,14.52,12.08
										c-1.89-3.77-7.77-8.2-13.27-12.79c-6.88-5.75-3.88-18.62-11.5-26.62s-18.75-3-21-2.75s-1.5,3.12-1.5,3.12
										C546.84,244.83,546.97,244.97,547.12,245.14z"/>
									<path id="XMLID_46_" class="st22" d="M554.5,260.88c0,0,3.25-2.25,3.62-0.25s-0.5,3.62-3.62,4.25V260.88z"/>
									<g id="XMLID_261_">
										<path id="XMLID_218_" class="st32" d="M554.5,264.88c0,0-0.04,0.66-0.06,1.82c-0.02,1.16-0.03,2.83,0.24,4.77
											c0.07,0.49,0.19,0.98,0.35,1.47c0.18,0.45,0.47,0.96,0.69,1.5c0.46,1.09,0.66,2.33,0.78,3.57
											c0.07,0.62,0.14,1.25,0.21,1.88c0.04,0.32,0.08,0.63,0.12,0.95c0.05,0.25,0.11,0.64,0.21,0.91
											c0.38,1.11,1.28,2.1,2.2,3.04c0.91,0.96,1.84,1.97,2.53,3.13c0.71,1.14,1.2,2.4,1.45,3.66c0.27,1.26,0.31,2.47,0.42,3.59
											c0.1,1.13,0.25,2.2,0.39,3.18c0.29,1.96,0.59,3.59,0.86,4.72c0.26,1.13,0.45,1.77,0.45,1.77s-0.25-0.62-0.59-1.73
											c-0.33-1.12-0.77-2.72-1.14-4.69c-0.18-0.98-0.36-2.05-0.51-3.19c-0.16-1.14-0.25-2.34-0.51-3.51
											c-0.25-1.19-0.72-2.36-1.41-3.42c-0.67-1.08-1.57-2.03-2.49-2.98c-0.9-0.97-1.87-1.98-2.33-3.38
											c-0.11-0.35-0.15-0.61-0.21-0.99c-0.04-0.32-0.07-0.64-0.11-0.96c-0.06-0.64-0.13-1.27-0.19-1.89
											c-0.12-1.24-0.25-2.4-0.65-3.44c-0.18-0.52-0.44-0.99-0.63-1.55c-0.15-0.54-0.26-1.06-0.31-1.56
											c-0.21-2.01-0.05-3.68,0.03-4.84C554.39,265.53,554.5,264.88,554.5,264.88z"/>
										<path id="XMLID_262_" class="st32" d="M560.17,253.5c0,0,0.47,0.53,1.11,1.58c0.63,1.05,1.49,2.62,2.08,4.67
											c0.28,1.02,0.55,2.16,0.64,3.38c0.07,0.61,0.06,1.24,0.07,1.89c-0.03,0.65-0.08,1.3-0.15,1.95
											c-0.24,2.6-0.28,5.4,0.06,8.15c0.16,1.37,0.4,2.74,0.81,4.03c0.41,1.28,0.97,2.51,1.82,3.43c0.23,0.2,0.43,0.45,0.68,0.62
											c0.25,0.16,0.49,0.35,0.77,0.51c0.54,0.32,1.08,0.69,1.56,1.07c0.97,0.75,1.8,1.55,2.52,2.33
											c1.44,1.57,2.39,3.08,2.9,4.21c0.27,0.56,0.38,1.04,0.44,1.36c0.04,0.33,0.04,0.5,0.04,0.5s-0.02-0.18-0.08-0.5
											c-0.09-0.32-0.24-0.77-0.54-1.31c-0.55-1.09-1.61-2.49-3.07-3.98c-0.73-0.74-1.58-1.49-2.54-2.18
											c-0.48-0.35-0.98-0.66-1.54-0.97c-0.27-0.14-0.55-0.34-0.84-0.53c-0.29-0.19-0.51-0.46-0.77-0.69
											c-0.95-1.02-1.56-2.32-2-3.65c-0.44-1.34-0.71-2.75-0.88-4.16c-0.31-2.83-0.24-5.67,0.04-8.3
											c0.06-0.65,0.12-1.29,0.18-1.91c0.02-0.62,0.05-1.23,0-1.82c-0.04-1.19-0.26-2.3-0.5-3.31c-0.51-2.02-1.22-3.63-1.8-4.7
											C560.58,254.07,560.17,253.5,560.17,253.5z"/>
										<path id="XMLID_263_" class="st32" d="M568.17,248.17c0,0,0.5,0.52,1.16,1.59c0.66,1.06,1.51,2.67,2.11,4.75
											c0.31,1.04,0.54,2.19,0.71,3.42c0.14,1.23,0.2,2.56,0.15,3.89c-0.03,2.68-0.13,5.53,0.07,8.35
											c0.09,1.41,0.26,2.81,0.63,4.13c0.37,1.31,0.98,2.54,1.93,3.36c0.22,0.23,0.49,0.39,0.75,0.54
											c0.25,0.16,0.56,0.31,0.84,0.46c0.57,0.3,1.14,0.6,1.67,0.9c1.08,0.61,2.06,1.24,2.93,1.9c1.74,1.3,2.87,2.77,3.46,3.88
											c0.31,0.55,0.48,1.02,0.59,1.33c0.11,0.32,0.16,0.49,0.16,0.49s-0.07-0.16-0.2-0.47c-0.13-0.31-0.35-0.75-0.68-1.27
											c-0.63-1.07-1.85-2.39-3.58-3.61c-0.87-0.61-1.86-1.2-2.94-1.76c-0.54-0.28-1.1-0.56-1.68-0.83
											c-0.29-0.14-0.58-0.26-0.89-0.45c-0.31-0.17-0.61-0.35-0.86-0.6c-1.09-0.93-1.77-2.28-2.17-3.66
											c-0.41-1.39-0.59-2.83-0.7-4.27c-0.18-2.88-0.04-5.75,0.02-8.42c0.05-1.35,0.04-2.6-0.05-3.82
											c-0.12-1.21-0.3-2.34-0.57-3.37c-0.53-2.05-1.23-3.7-1.83-4.79C568.61,248.73,568.17,248.17,568.17,248.17z"/>
									</g>
								</g>
							</g>
						</g>
					</g>
				</g>
				<g id="XMLID_348_" style="clip-path:url(#XMLID_00000141414265187865745520000013867279788232864644_);">
					<g id="XMLID_83_">
						<ellipse id="XMLID_70_" class="st33" cx="97" cy="318" rx="12.21" ry="25.2"/>
						<g id="XMLID_82_">
							<g id="XMLID_69_">
								<polygon class="st8" points="95.35,386.8 96.85,303.62 98.35,386.8 95.35,386.8 								"/>
							</g>
							<g id="XMLID_42_">
								<path class="st8" d="M103.03,305.67c1.06,4.68,1.84,21.13-6.18,19.17c0.94,0.09,1.9-0.02,2.62-0.56
									C103.49,321.06,102.74,310.62,103.03,305.67L103.03,305.67z"/>
							</g>
							<g id="XMLID_23_">
								<path class="st8" d="M91.42,314.35c0.37,7.1-1.61,17.99,6.8,21.03c-1.01-0.11-2-0.45-2.9-0.97
									C89.07,330.11,90.45,320.83,91.42,314.35L91.42,314.35z"/>
							</g>
						</g>
					</g>
					<g id="XMLID_59_">
						<ellipse id="XMLID_128_" class="st33" cx="641.67" cy="312" rx="12.21" ry="25.2"/>
						<g id="XMLID_64_">
							<g id="XMLID_84_">
								<polygon class="st8" points="640.01,380.8 641.51,297.62 643.01,380.8 640.01,380.8 								"/>
							</g>
							<g id="XMLID_77_">
								<path class="st8" d="M647.7,299.67c1.06,4.68,1.84,21.13-6.18,19.17c0.94,0.09,1.9-0.02,2.62-0.56
									C648.15,315.06,647.41,304.62,647.7,299.67L647.7,299.67z"/>
							</g>
							<g id="XMLID_65_">
								<path class="st8" d="M636.09,308.35c0.37,7.1-1.61,17.99,6.8,21.03c-1.01-0.11-2-0.45-2.9-0.97
									C633.74,324.11,635.11,314.83,636.09,308.35L636.09,308.35z"/>
							</g>
						</g>
					</g>
					<g id="XMLID_81_">
						<path id="XMLID_71_" class="st34" d="M115.05,448.16c0,0-28.02-91.07-35.78-83.84c-7.77,7.23,33.75,84.01,33.75,84.01
							L115.05,448.16z"/>
						<path id="XMLID_22_" class="st34" d="M116.17,446.58c0,0-24.75-59-11.25-66.25S116.17,446.58,116.17,446.58z"/>
						<path id="XMLID_97_" class="st34" d="M111.17,446.83c0,0-30.75-62-39.75-51.75S111.17,446.83,111.17,446.83z"/>
						<path id="XMLID_98_" class="st34" d="M108.42,447.33c0,0-32.75-29.5-35.5-22.25S108.42,447.33,108.42,447.33z"/>
						<path id="XMLID_99_" class="st34" d="M118.42,447.33c0,0-7.25-58.75,5.75-55.25S118.42,447.33,118.42,447.33z"/>
						<path id="XMLID_100_" class="st34" d="M120.17,447.58c0,0,6.25-35.25,16.5-35.5S120.17,447.58,120.17,447.58z"/>
					</g>
					<g id="XMLID_192_">
						<g id="XMLID_191_">
							<g id="XMLID_122_" class="st35">
								<path id="XMLID_215_" class="st36" d="M273.08,410.17c0,0,0.29-0.21,0.73-0.36c0.44-0.17,1.02-0.27,1.6-0.27
									c0.58,0,1.16,0.1,1.6,0.27c0.44,0.15,0.73,0.36,0.73,0.36s-0.29,0.21-0.73,0.36c-0.44,0.17-1.02,0.27-1.6,0.27
									c-0.58,0-1.16-0.1-1.6-0.27C273.37,410.38,273.08,410.17,273.08,410.17z"/>
								<path id="XMLID_216_" class="st36" d="M274.09,413.98c0,0,0.29-0.21,0.73-0.36c0.44-0.17,1.02-0.27,1.6-0.27
									c0.58,0,1.16,0.1,1.6,0.27c0.44,0.15,0.73,0.36,0.73,0.36s-0.29,0.21-0.73,0.36c-0.44,0.17-1.02,0.27-1.6,0.27
									c-0.58,0-1.16-0.1-1.6-0.27C274.38,414.19,274.09,413.98,274.09,413.98z"/>
								<path id="XMLID_217_" class="st36" d="M280.34,411.62c0,0,0.29-0.21,0.73-0.36c0.44-0.17,1.02-0.27,1.6-0.27
									c0.58,0,1.16,0.1,1.6,0.27c0.44,0.15,0.73,0.36,0.73,0.36s-0.29,0.21-0.73,0.36c-0.44,0.17-1.02,0.27-1.6,0.27
									c-0.58,0-1.16-0.1-1.6-0.27C280.63,411.83,280.34,411.62,280.34,411.62z"/>
							</g>
							<g id="XMLID_253_" class="st35">
								<path id="XMLID_256_" class="st36" d="M422.33,422.54c0,0-0.36,0.26-0.89,0.44c-0.53,0.2-1.25,0.32-1.96,0.33
									c-0.71,0-1.42-0.12-1.96-0.33c-0.53-0.18-0.89-0.44-0.89-0.44s0.36-0.26,0.89-0.44c0.53-0.2,1.25-0.32,1.96-0.33
									c0.71,0,1.42,0.12,1.96,0.33C421.97,422.29,422.33,422.54,422.33,422.54z"/>
								<path id="XMLID_255_" class="st36" d="M421.1,417.88c0,0-0.36,0.26-0.89,0.44c-0.53,0.2-1.25,0.32-1.96,0.33
									c-0.71,0-1.42-0.12-1.96-0.33c-0.53-0.18-0.89-0.44-0.89-0.44s0.36-0.26,0.89-0.44c0.53-0.2,1.25-0.32,1.96-0.33
									c0.71,0,1.42,0.12,1.96,0.33C420.74,417.62,421.1,417.88,421.1,417.88z"/>
								<path id="XMLID_254_" class="st36" d="M413.45,420.76c0,0-0.36,0.26-0.89,0.44c-0.53,0.2-1.25,0.32-1.96,0.33
									c-0.71,0-1.42-0.12-1.96-0.33c-0.53-0.18-0.89-0.44-0.89-0.44s0.36-0.26,0.89-0.44c0.53-0.2,1.25-0.32,1.96-0.33
									c0.71,0,1.42,0.12,1.96,0.33C413.09,420.5,413.45,420.76,413.45,420.76z"/>
							</g>
							<g id="XMLID_249_" class="st35">
								<path id="XMLID_252_" class="st36" d="M55.01,388.53c0,0,0.18-0.13,0.45-0.22c0.27-0.1,0.64-0.17,1-0.17
									c0.36,0,0.73,0.06,1,0.17c0.27,0.09,0.45,0.22,0.45,0.22s-0.18,0.13-0.45,0.22c-0.27,0.1-0.64,0.17-1,0.17
									c-0.36,0-0.73-0.06-1-0.17C55.19,388.66,55.01,388.53,55.01,388.53z"/>
								<path id="XMLID_251_" class="st36" d="M55.64,390.91c0,0,0.18-0.13,0.45-0.22c0.27-0.1,0.64-0.17,1-0.17
									c0.36,0,0.73,0.06,1,0.17c0.27,0.09,0.45,0.22,0.45,0.22s-0.18,0.13-0.45,0.22c-0.27,0.1-0.64,0.17-1,0.17
									c-0.36,0-0.73-0.06-1-0.17C55.82,391.04,55.64,390.91,55.64,390.91z"/>
								<path id="XMLID_250_" class="st36" d="M59.55,389.44c0,0,0.18-0.13,0.45-0.22c0.27-0.1,0.64-0.17,1-0.17
									c0.36,0,0.73,0.06,1,0.17c0.27,0.09,0.45,0.22,0.45,0.22s-0.18,0.13-0.45,0.22c-0.27,0.1-0.64,0.17-1,0.17
									c-0.36,0-0.73-0.06-1-0.17C59.73,389.57,59.55,389.44,59.55,389.44z"/>
							</g>
							<g id="XMLID_241_" class="st35">
								<path id="XMLID_244_" class="st36" d="M151.31,398.08c0,0,0.23-0.17,0.57-0.3c0.34-0.14,0.79-0.22,1.24-0.22
									c0.45,0,0.9,0.08,1.24,0.22c0.34,0.12,0.57,0.3,0.57,0.3s-0.23,0.18-0.57,0.3c-0.34,0.14-0.79,0.22-1.24,0.22
									c-0.45,0-0.9-0.08-1.24-0.22C151.54,398.26,151.31,398.08,151.31,398.08z"/>
								<path id="XMLID_243_" class="st36" d="M152.09,401.26c0,0,0.23-0.17,0.57-0.3c0.34-0.14,0.79-0.22,1.24-0.22
									c0.45,0,0.9,0.08,1.24,0.22c0.34,0.12,0.57,0.3,0.57,0.3s-0.23,0.18-0.57,0.3c-0.34,0.14-0.79,0.22-1.24,0.22
									c-0.45,0-0.9-0.08-1.24-0.22C152.31,401.43,152.09,401.26,152.09,401.26z"/>
								<path id="XMLID_242_" class="st36" d="M156.95,399.3c0,0,0.23-0.17,0.57-0.3c0.34-0.14,0.79-0.22,1.24-0.22
									c0.45,0,0.9,0.08,1.24,0.22c0.34,0.12,0.57,0.3,0.57,0.3s-0.23,0.18-0.57,0.3c-0.34,0.14-0.79,0.22-1.24,0.22
									c-0.45,0-0.9-0.08-1.24-0.22C157.17,399.47,156.95,399.3,156.95,399.3z"/>
							</g>
							<g id="XMLID_245_" class="st35">
								<path id="XMLID_248_" class="st36" d="M661.41,379.12c0,0,0.23-0.17,0.57-0.3c0.34-0.14,0.79-0.22,1.24-0.22
									c0.45,0,0.9,0.08,1.24,0.22c0.34,0.12,0.57,0.3,0.57,0.3s-0.23,0.18-0.57,0.3c-0.34,0.14-0.79,0.22-1.24,0.22
									c-0.45,0-0.9-0.08-1.24-0.22C661.64,379.29,661.41,379.12,661.41,379.12z"/>
								<path id="XMLID_247_" class="st36" d="M662.19,382.29c0,0,0.23-0.17,0.57-0.3c0.34-0.14,0.79-0.22,1.24-0.22
									c0.45,0,0.9,0.08,1.24,0.22c0.34,0.12,0.57,0.3,0.57,0.3s-0.23,0.18-0.57,0.3c-0.34,0.14-0.79,0.22-1.24,0.22
									c-0.45,0-0.9-0.08-1.24-0.22C662.42,382.46,662.19,382.29,662.19,382.29z"/>
								<path id="XMLID_246_" class="st36" d="M667.05,380.33c0,0,0.23-0.17,0.57-0.3c0.34-0.14,0.79-0.22,1.24-0.22
									c0.45,0,0.9,0.08,1.24,0.22c0.34,0.12,0.57,0.3,0.57,0.3s-0.23,0.18-0.57,0.3c-0.34,0.14-0.79,0.22-1.24,0.22
									c-0.45,0-0.9-0.08-1.24-0.22C667.28,380.51,667.05,380.33,667.05,380.33z"/>
							</g>
							<g id="XMLID_257_" class="st35">
								<path id="XMLID_260_" class="st36" d="M508.27,404.5c0,0,0.23-0.17,0.57-0.3c0.34-0.14,0.79-0.22,1.24-0.22
									c0.45,0,0.9,0.08,1.24,0.22c0.34,0.12,0.57,0.3,0.57,0.3s-0.23,0.18-0.57,0.3c-0.34,0.14-0.79,0.22-1.24,0.22
									c-0.45,0-0.9-0.08-1.24-0.22C508.5,404.67,508.27,404.5,508.27,404.5z"/>
								<path id="XMLID_259_" class="st36" d="M509.05,407.67c0,0,0.23-0.17,0.57-0.3c0.34-0.14,0.79-0.22,1.24-0.22
									c0.45,0,0.9,0.08,1.24,0.22c0.34,0.12,0.57,0.3,0.57,0.3s-0.23,0.18-0.57,0.3c-0.34,0.14-0.79,0.22-1.24,0.22
									c-0.45,0-0.9-0.08-1.24-0.22C509.28,407.84,509.05,407.67,509.05,407.67z"/>
								<path id="XMLID_258_" class="st36" d="M513.91,405.71c0,0,0.23-0.17,0.57-0.3c0.34-0.14,0.79-0.22,1.24-0.22
									c0.45,0,0.9,0.08,1.24,0.22c0.34,0.12,0.57,0.3,0.57,0.3s-0.23,0.18-0.57,0.3c-0.34,0.14-0.79,0.22-1.24,0.22
									c-0.45,0-0.9-0.08-1.24-0.22C514.14,405.88,513.91,405.71,513.91,405.71z"/>
							</g>
						</g>
						<g id="XMLID_190_">
							<g id="XMLID_189_">
								<path id="XMLID_103_" class="st9" d="M482.08,94.89c0,0,7.85-0.36,10.22-13.14c0,0-0.18,11.31,6.39,12.04
									c0,0-8.03-0.36-6.93,16.79C491.76,110.58,490.3,95.44,482.08,94.89z"/>
								<path id="XMLID_212_" class="st9" d="M500.67,109.67c0,0,3.75-0.17,4.89-6.28c0,0-0.09,5.41,3.05,5.76
									c0,0-3.84-0.17-3.32,8.03C505.29,117.17,504.59,109.93,500.67,109.67z"/>
							</g>
							<g id="XMLID_188_">
								<path id="XMLID_60_" class="st9" d="M596.47,223.25h38.5c0,0-1.5-1-3-7.5s-6.5-15.25-9.25-7s-3,9.25-3,9.25s-3.25-12-6.5-3
									l-1.5,3.5c0,0-3-9.25-5.5-8.25S603.22,224,596.47,223.25z"/>
								<path id="XMLID_175_" class="st9" d="M320.6,105.1h-43.12c0,0,1.68-0.74,3.36-5.54c1.68-4.8,7.28-11.27,10.36-5.17
									s3.36,6.84,3.36,6.84s3.64-8.87,7.28-2.22l1.68,2.59c0,0,3.36-6.84,6.16-6.1C312.48,96.23,313.04,105.65,320.6,105.1z"/>
								<path id="XMLID_176_" class="st9" d="M148.43,283.24h-28.46c0,0,1.11-0.74,2.22-5.54c1.11-4.8,4.8-11.27,6.84-5.17
									c2.03,6.1,2.22,6.84,2.22,6.84s2.4-8.87,4.8-2.22l1.11,2.59c0,0,2.22-6.84,4.07-6.1
									C143.07,274.37,143.44,283.8,148.43,283.24z"/>
								<path id="XMLID_102_" class="st9" d="M140.97,205.08c0,0,10.75-0.5,14-18c0,0-0.25,15.5,8.75,16.5c0,0-11-0.5-9.5,23
									C154.22,226.58,152.22,205.83,140.97,205.08z"/>
								<g id="XMLID_9_">
									<circle class="st37" cx="160.55" cy="151.33" r="6.33"/>
								</g>
								<g id="XMLID_115_">
									<g>
										<polyline class="st38" points="613.12,180.54 612.22,182.33 614.22,182.33 										"/>
										<line class="st39" x1="618.67" y1="182.33" x2="625.33" y2="182.33"/>
										<polyline class="st38" points="627.55,182.33 629.55,182.33 628.55,180.61 										"/>
										<line class="st40" x1="626.11" y1="176.42" x2="622.45" y2="170.15"/>
										<polyline class="st38" points="621.23,168.06 620.22,166.33 619.33,168.12 										"/>
										<line class="st41" x1="617.26" y1="172.26" x2="614.15" y2="178.47"/>
									</g>
								</g>
								<g id="XMLID_101_">
									<g>
										<polyline class="st38" points="446.94,118.46 444.94,118.46 443.94,116.73 										"/>
										<line class="st42" x1="442.4" y1="114.06" x2="440.09" y2="110.06"/>
										<polyline class="st38" points="439.32,108.73 438.32,107 439.32,105.27 										"/>
										<line class="st42" x1="440.86" y1="102.6" x2="443.17" y2="98.6"/>
										<polyline class="st38" points="443.94,97.27 444.94,95.54 446.94,95.54 										"/>
										<line class="st42" x1="450.02" y1="95.54" x2="454.63" y2="95.54"/>
										<polyline class="st38" points="456.17,95.54 458.17,95.54 459.17,97.27 										"/>
										<line class="st42" x1="460.71" y1="99.94" x2="463.02" y2="103.94"/>
										<polyline class="st38" points="463.79,105.27 464.79,107 463.79,108.73 										"/>
										<line class="st42" x1="462.25" y1="111.4" x2="459.94" y2="115.4"/>
										<polyline class="st38" points="459.17,116.73 458.17,118.46 456.17,118.46 										"/>
										<line class="st42" x1="453.09" y1="118.46" x2="448.48" y2="118.46"/>
									</g>
								</g>
								<polygon id="XMLID_120_" class="st9" points="218.72,112.54 219.86,114.84 222.4,115.21 220.56,117 220.99,119.53 
									218.72,118.33 216.45,119.53 216.89,117 215.05,115.21 217.59,114.84 								"/>
								<polygon id="XMLID_121_" class="st9" points="62.89,342.53 63.78,344.33 65.76,344.62 64.33,346.02 64.67,348 62.89,347.07 
									61.11,348 61.45,346.02 60.01,344.62 62,344.33 								"/>
								<polygon id="XMLID_210_" class="st9" points="622.67,344.52 623.78,346.77 626.26,347.13 624.46,348.88 624.89,351.35 
									622.67,350.18 620.44,351.35 620.87,348.88 619.07,347.13 621.56,346.77 								"/>
								<polygon id="XMLID_211_" class="st9" points="586,205.6 586.83,207.29 588.69,207.56 587.35,208.88 587.66,210.73 
									586,209.86 584.33,210.73 584.65,208.88 583.3,207.56 585.17,207.29 								"/>
								<circle id="XMLID_279_" class="st43" cx="572.22" cy="119" r="3.33"/>
								<circle id="XMLID_284_" class="st43" cx="623.89" cy="266.67" r="1.46"/>
								<circle id="XMLID_286_" class="st43" cx="682.33" cy="357.21" r="2.1"/>
								<circle id="XMLID_287_" class="st43" cx="278.79" cy="124.33" r="2.1"/>
								<circle id="XMLID_302_" class="st43" cx="162.67" cy="367.67" r="2.1"/>
								<circle id="XMLID_292_" class="st43" cx="324.46" cy="73.33" r="1.18"/>
								<circle id="XMLID_301_" class="st43" cx="133.55" cy="244.85" r="1.18"/>
							</g>
						</g>
					</g>
					<g id="XMLID_129_">
						<path id="XMLID_141_" class="st34" d="M625.72,439.49c0,0-18.61-71.72-26.38-64.49s24.34,64.66,24.34,64.66L625.72,439.49z"/>
						<path id="XMLID_140_" class="st34" d="M626.83,437.92c0,0-14.17-56.25-8.17-68.25C625.52,355.96,626.83,437.92,626.83,437.92z
							"/>
						<path id="XMLID_139_" class="st34" d="M621.83,438.17c0,0-30.75-62-39.75-51.75S621.83,438.17,621.83,438.17z"/>
						<path id="XMLID_138_" class="st34" d="M619.08,438.67c0,0-32.75-29.5-35.5-22.25S619.08,438.67,619.08,438.67z"/>
						<path id="XMLID_137_" class="st34" d="M629.08,438.67c0,0-7.25-58.75,5.75-55.25S629.08,438.67,629.08,438.67z"/>
						<path id="XMLID_130_" class="st34" d="M630.83,438.92c0,0,6.25-35.25,16.5-35.5S630.83,438.92,630.83,438.92z"/>
					</g>
				</g>
			</g>
			<g id="XMLID_86_">
				<g id="XMLID_277_">
					<path id="XMLID_6_" d="M182.5,421.5c0,0-1,12,1.25,12.75s20.5,1.5,21.5,0s2-3-13.5-5.75l-0.75-8L182.5,421.5z"/>
					<path id="XMLID_7_" d="M215,421.5c0,0-1,12,1.25,12.75s20.5,1.5,21.5,0s2-3-13.5-5.75l-0.75-8L215,421.5z"/>
					<path id="XMLID_8_" class="st44" d="M180.25,344.75L178.5,423c0,0,16.5,0.25,18-0.5s4.25-36.25,6-47.5s2.25-14.25,2.25-14.25
						l5,61c0,0,16.75,3.75,18-0.75s-1.5,0.25-1.75-19.25s-1.25-64-1.25-64L180.25,344.75z"/>
					<path id="XMLID_119_" class="st45" d="M182.74,350.98c-0.52-0.06-0.71-0.87-0.13-0.96c0.04-0.01,0.09-0.02,0.13-0.02
						c0-0.08,0-0.16,0-0.24c0-0.64,1-0.64,1,0c0,0.02,0,0.04,0,0.07c12.32-2.05,24.2-6.18,36.09-9.9c1.64-0.51,3.28-0.99,4.93-1.44
						c-0.01-0.47-0.02-0.72-0.02-0.72l-44.5,7L178.5,423c0,0,1.29,0.02,3.17,0.03C180.62,399.06,182.65,374.97,182.74,350.98z"/>
					<path id="XMLID_118_" class="st45" d="M210.22,398.82c-0.46-6.99-1.28-13.77-2.85-20.6c-0.61-2.65-1.25-5.3-1.84-7.95
						l4.22,51.48c0,0,0.7,0.16,1.81,0.36c-0.07-0.99-0.14-1.97-0.2-2.96C210.94,412.38,210.66,405.6,210.22,398.82z"/>
					<path id="XMLID_16_" d="M207.5,343.38c0,0,0,0.27-0.02,0.74c-0.03,0.46-0.05,1.13-0.13,1.93c-0.13,1.59-0.39,3.7-0.73,5.79
						c-0.35,2.09-0.77,4.17-1.16,5.72c-0.18,0.78-0.38,1.42-0.5,1.87c-0.13,0.45-0.21,0.7-0.21,0.7s0-0.27,0.02-0.74
						c0.03-0.46,0.05-1.13,0.12-1.93c0.13-1.59,0.39-3.7,0.74-5.79c0.35-2.09,0.77-4.17,1.16-5.72c0.18-0.78,0.38-1.42,0.5-1.87
						C207.41,343.63,207.5,343.38,207.5,343.38z"/>
				</g>
				<g id="XMLID_276_">
					<g id="XMLID_274_">
						
							<rect id="XMLID_11_" x="130.49" y="288.73" transform="matrix(0.9788 -0.2046 0.2046 0.9788 -59.5099 51.9229)" class="st9" width="181.57" height="49.89"/>
						<path id="XMLID_349_" class="st46" d="M248.02,326.78c-0.85-0.31-2.4-0.64-2.83-0.69c-0.16,0.17-0.3,0.38-0.42,0.62
							c-0.05,0.09-0.09,0.19-0.14,0.27c-0.21,0.5-0.37,1.13-0.45,1.92c-0.18,1.69,1.05,3.4,2.6,4.93l8.19-1.71
							c-0.73-0.78-1.48-1.57-2.26-2.34C251.29,328.4,249.86,327.46,248.02,326.78z"/>
						<path id="XMLID_351_" class="st46" d="M177.83,297.27c-0.44,10.17,2.23,20.23,7.04,29.24c3.29,6.17,7.14,12,10.66,18.02
							l3.72-0.78c-6.05-8.24-10.09-17.75-11.74-27.7c-0.23-0.37-0.44-0.77-0.58-1.23c-1.95-6.44-1.55-12.77-1.07-19.23
							L177.83,297.27z"/>
						<g>
							<g>
								<path d="M153.73,335.13l-4.32-20.35l3.64-0.77l4.32,20.35L153.73,335.13z M161.48,333.48l-6.96-15.14l-1.56,0.33l-0.94-4.44
									l3.08-0.65l6.96,15.14l0.96-0.2l0.94,4.44L161.48,333.48z M163.53,333.04l-4.32-20.35l3.64-0.77l4.33,20.35L163.53,333.04z"
									/>
								<path d="M175.5,330.8c-1.44,0.31-2.66,0.07-3.66-0.71c-1-0.78-1.68-2.04-2.04-3.77l-2.13-10.03l3.88-0.83l1.93,9.07
									c0.18,0.87,0.53,1.5,1.02,1.89c0.5,0.39,1.09,0.51,1.79,0.36c0.91-0.19,1.52-0.69,1.83-1.49c0.31-0.8,0.29-2.03-0.06-3.68
									l1.85,4.89l-1.17,0.25c-0.02,1.08-0.31,1.97-0.88,2.67C177.29,330.13,176.5,330.59,175.5,330.8z M178.85,325.29l-2.31-10.89
									l3.88-0.83l2.13,10.03L178.85,325.29z M180.05,329.68l-1.03-3.58l-0.57-2.67l3.88-0.83l0.57,2.69l2.16-0.13l0.67,3.15
									L180.05,329.68z"/>
								<path d="M193.39,327c-1.88,0.4-3.49,0.03-4.82-1.1c-1.33-1.13-2.27-2.97-2.81-5.5c-0.53-2.51-0.42-4.57,0.33-6.17
									c0.75-1.6,2.08-2.6,3.98-3c1.16-0.25,2.09-0.18,2.79,0.19c0.7,0.37,1.25,1.05,1.65,2.04l1.12-0.24l0.14,5.05
									c-0.31-1.47-0.79-2.49-1.42-3.07c-0.64-0.57-1.45-0.75-2.45-0.54c-0.98,0.21-1.66,0.74-2.04,1.59
									c-0.38,0.85-0.42,1.95-0.14,3.3c0.3,1.39,0.78,2.39,1.45,2.99c0.67,0.6,1.51,0.79,2.52,0.57c1.11-0.24,1.81-0.73,2.1-1.49
									c0.29-0.76,0.28-1.88-0.03-3.35l2.06,4.61l-1.35,0.29c0.06,1.04-0.17,1.89-0.71,2.53
									C195.25,326.34,194.45,326.77,193.39,327z M190.3,334.51l-0.86-3.35l4.84-1.18c1.33-0.32,2.22-0.9,2.67-1.73
									c0.45-0.83,0.53-1.93,0.24-3.29l-2.36-11.09l-0.4-3.27l3.6-0.76l2.94,13.84c0.58,2.7,0.36,4.83-0.63,6.39
									s-2.88,2.68-5.63,3.36L190.3,334.51z"/>
								<path d="M214.86,322.28l-1.29-4.43l-0.48-1.96l-0.63-2.97c-0.17-0.81-0.65-1.33-1.42-1.56c-0.77-0.23-1.85-0.22-3.22,0.03
									l-3.9,0.72l-0.46-3.58l3.32-0.66c2.76-0.55,4.92-0.44,6.48,0.32c1.56,0.76,2.55,2.15,2.98,4.15l1.19,5.62l2.17-0.13
									l0.67,3.15L214.86,322.28z M209.74,323.52c-1.61,0.34-2.95,0.21-4.02-0.39s-1.75-1.63-2.07-3.1
									c-0.36-1.7-0.05-3.13,0.93-4.29c0.98-1.16,2.55-1.96,4.71-2.42c0.83-0.18,1.56-0.29,2.18-0.33
									c0.62-0.04,1.27-0.04,1.93,0.01l0.01,3.16c-0.64-0.01-1.21,0.02-1.7,0.1c-0.49,0.08-1.01,0.18-1.54,0.29
									c-2.01,0.43-2.89,1.21-2.64,2.36c0.11,0.52,0.38,0.87,0.8,1.07c0.42,0.2,0.98,0.22,1.68,0.07c0.84-0.18,1.51-0.49,2.01-0.92
									c0.5-0.43,0.83-0.93,1.01-1.47c0.18-0.55,0.21-1.08,0.1-1.59l-0.2-0.95l1.37,3.78l-1.22,0.26l0.4-0.57
									c0.16,0.88,0.11,1.66-0.13,2.33c-0.25,0.67-0.68,1.22-1.29,1.65C211.45,323,210.68,323.32,209.74,323.52z"/>
								<path d="M228.11,319.62c-1.16,0.25-2.19,0.43-3.1,0.55c-0.91,0.12-1.72,0.18-2.43,0.18l-0.33-3.81
									c1.24-0.1,2.27-0.2,3.11-0.3c0.84-0.1,1.49-0.2,1.96-0.3c1.3-0.28,2.22-0.56,2.77-0.86c0.54-0.3,0.78-0.65,0.69-1.04
									c-0.05-0.23-0.16-0.4-0.33-0.5c-0.17-0.1-0.43-0.17-0.76-0.2l-5.25-0.38c-1.08-0.08-1.93-0.37-2.57-0.87
									c-0.64-0.5-1.07-1.26-1.29-2.28c-0.35-1.63,0.08-3,1.29-4.09c1.21-1.09,3.21-1.93,6.01-2.53c0.65-0.14,1.33-0.26,2.04-0.36
									c0.71-0.1,1.47-0.19,2.27-0.26l0.35,3.69c-0.89,0.11-1.66,0.22-2.31,0.33c-0.66,0.11-1.21,0.21-1.66,0.31
									c-1.5,0.32-2.57,0.63-3.21,0.94c-0.64,0.31-0.92,0.66-0.84,1.04c0.05,0.24,0.16,0.41,0.33,0.51
									c0.17,0.1,0.41,0.16,0.72,0.18l4.5,0.27c1.38,0.08,2.47,0.38,3.26,0.92c0.79,0.54,1.3,1.34,1.53,2.42
									c0.34,1.61-0.04,2.95-1.15,4.01C232.61,318.25,230.74,319.06,228.11,319.62z"/>
								<path d="M246.48,315.71c-0.73,0.15-1.4,0.03-2.01-0.37c-0.62-0.4-1-0.96-1.15-1.68c-0.15-0.73-0.03-1.4,0.37-2.01
									c0.4-0.61,0.96-1,1.69-1.15s1.4-0.03,2.01,0.37s1,0.96,1.15,1.69c0.15,0.72,0.03,1.38-0.37,2
									C247.77,315.17,247.21,315.56,246.48,315.71z"/>
								<path d="M255.46,301.37l-0.76-3.58l8.62-1.83l0.76,3.58L255.46,301.37z M257.06,313.16l-0.76-3.58l5.9-1.25l0.76,3.58
									L257.06,313.16z M260.78,294.36c-0.74,0.16-1.38,0.05-1.94-0.31c-0.56-0.36-0.91-0.91-1.07-1.64
									c-0.16-0.74-0.05-1.38,0.31-1.94c0.36-0.56,0.91-0.91,1.65-1.07c0.74-0.16,1.38-0.05,1.94,0.31
									c0.56,0.36,0.91,0.91,1.07,1.64s0.05,1.38-0.31,1.94C262.06,293.84,261.52,294.2,260.78,294.36z M262.68,311.97l-3.05-14.33
									l3.87-0.82l3.04,14.33L262.68,311.97z M266.26,311.21l-0.76-3.58l4.79-1.02l0.76,3.58L266.26,311.21z"/>
								<path d="M279.36,308.72c-1.88,0.4-3.49,0.03-4.82-1.1c-1.33-1.13-2.27-2.97-2.81-5.5c-0.53-2.51-0.42-4.57,0.33-6.17
									c0.75-1.6,2.08-2.6,3.98-3c1.11-0.24,2-0.16,2.69,0.22c0.68,0.38,1.22,1.06,1.61,2.04l1.26-0.27l0.14,5.05
									c-0.31-1.47-0.79-2.49-1.42-3.07c-0.64-0.57-1.45-0.75-2.44-0.54c-0.98,0.21-1.67,0.74-2.04,1.59
									c-0.38,0.85-0.42,1.95-0.14,3.3c0.3,1.39,0.78,2.39,1.45,2.99c0.67,0.6,1.51,0.79,2.53,0.57c1.11-0.24,1.81-0.73,2.1-1.49
									c0.29-0.76,0.28-1.88-0.03-3.35l2.06,4.61l-1.35,0.29c0.06,1.05-0.17,1.89-0.71,2.53S280.42,308.5,279.36,308.72z
									 M283.95,307.6l-1.2-2.89l-3.96-18.63l3.88-0.83l4.57,21.49L283.95,307.6z"/>
							</g>
						</g>
						<path id="NUGAS_x5F_00000140696285678532532320000011103104526072459428_x5F_" class="st47" d="M138.41,346.13l159.84-32.59"
							/>
						<text id="NUGAS" class="st0">						<textPath  xlink:href="#NUGAS_x5F_00000140696285678532532320000011103104526072459428_x5F_" startOffset="11.475%"  style="display:inline;">
<tspan  class="st44" style="font-family:'Blackout-Midnight'; font-size:36px; letter-spacing:75;">TITLE</tspan>						</textPath>
</text>
					</g>
					<g id="XMLID_273_">
						<path id="XMLID_17_" class="st48" d="M253.75,333c0,0-4.25,5.75-11.5,2.25c0,0-3.88-5.25-2.38-6s3.25,2.25,3.25,2.25
							s-2.5-4.38-0.75-4s2.62,3.25,2.62,3.25s-0.88-4.38,0.25-3.88s1.75,3.5,1.75,3.5s0-4.38,1.12-3.5s1.25,3.62,1.75,3.75
							S251.75,333.12,253.75,333z"/>
						<path id="XMLID_12_" class="st48" d="M184,343.5c0,0,1,5.5,4.5,6l1.12,0.12c0,0,2.62,0.12,3.62-1.12c0,0,2.38,0,2.5-1
							c0,0,3.12-0.62,2.5-1.88s-3.25-0.5-3.25-1s4.12-1.25,1.5-2.25s-5.38-2.62-5.38-2.62L184,343.5z"/>
						<g id="XMLID_271_">
							<path id="XMLID_15_" class="st49" d="M182.56,343.56c0,0,12.75-1.75,11.5-4.62s-5.5-9.62-7.5-16.62s-3.38-26.38-3.38-26.38
								l43.12-8.75c0,0-6.5-7.38-7.75-8.62s-11.62-5.12-11.62-5.12l-22.5,3c0,0-10.38,3.12-12,12.12S173.69,321.81,182.56,343.56z"
								/>
							<path id="XMLID_116_" class="st50" d="M183.4,295.71c0.09,0.04,0.18,0.08,0.27,0.13l42.65-8.65c0,0-0.62-0.71-1.52-1.72
								c-12.28,3.63-24.8,6.49-37.54,7.78c-0.35,0.04-0.53-0.35-0.48-0.63c0.64-3.75-2.76-6.24-5.33-8.53
								c0.55,2.24,2.04,4.25,2.3,6.6C183.93,292.36,183.66,294.04,183.4,295.71z"/>
							<path id="XMLID_18_" class="st51" d="M183.19,295.94c0,0-0.03-0.27-0.06-0.74c-0.03-0.47-0.08-1.13-0.13-1.93
								c-0.05-0.8-0.12-1.72-0.21-2.7c-0.11-0.98-0.24-2.02-0.47-3.03c-0.13-0.5-0.23-1.01-0.41-1.48
								c-0.15-0.48-0.34-0.94-0.54-1.37c-0.23-0.41-0.42-0.85-0.68-1.19c-0.13-0.18-0.25-0.35-0.37-0.52
								c-0.13-0.16-0.27-0.3-0.4-0.45c-0.25-0.3-0.52-0.53-0.76-0.74c-0.23-0.22-0.46-0.39-0.66-0.51
								c-0.39-0.26-0.61-0.42-0.61-0.42s0.25,0.08,0.7,0.25c0.23,0.08,0.49,0.19,0.78,0.37c0.29,0.16,0.63,0.34,0.94,0.63
								c0.16,0.13,0.34,0.27,0.5,0.42c0.15,0.17,0.31,0.34,0.47,0.52c0.33,0.35,0.59,0.79,0.87,1.24c0.24,0.47,0.5,0.94,0.67,1.46
								c0.21,0.51,0.33,1.05,0.47,1.58c0.1,0.54,0.21,1.08,0.26,1.62c0.08,0.53,0.08,1.06,0.11,1.57c0.02,1.02-0.01,1.96-0.1,2.77
								c-0.06,0.81-0.19,1.47-0.25,1.94C183.24,295.67,183.19,295.94,183.19,295.94z"/>
							<path id="XMLID_20_" class="st51" d="M211.31,275.44c0,0,0.16,0.18,0.42,0.51c0.25,0.34,0.63,0.8,1.04,1.39
								c0.83,1.17,1.87,2.77,2.82,4.42c0.95,1.65,1.82,3.35,2.39,4.67c0.29,0.66,0.49,1.23,0.64,1.62c0.14,0.4,0.19,0.64,0.19,0.64
								s-0.53-0.79-1.33-1.98c-0.79-1.19-1.8-2.8-2.76-4.45c-0.95-1.65-1.83-3.33-2.45-4.63c-0.31-0.64-0.54-1.2-0.71-1.58
								C211.4,275.66,211.31,275.44,211.31,275.44z"/>
						</g>
					</g>
					<g id="XMLID_270_">
						<path id="XMLID_13_" class="st28" d="M189.42,239.42c0,0-13.83,0.92-16.42,15.75c0,0,1.42,9.92-5.5,12.17s-6,18.25-4.83,19.25
							c1.17,1,8.67,4.08,9.75,1.92c1.08-2.17,2-5.58,5.17-7.33c3.17-1.75,7.17-4.67,7.17-4.67l22.33-2.08c0,0,7.75,3.75,8.17,3.08
							s3.08-9.17-1.83-15.42c-4.92-6.25-3-11.58-8.33-15.92C199.75,241.83,196.42,239.08,189.42,239.42z"/>
						<path id="XMLID_117_" class="st52" d="M209.27,264.88c0.06-1.72-0.18-3.44-0.67-5.08c-0.88-2.94-2.49-5.59-4.14-8.17
							c-2.67-0.89-5.47-1.43-8.06-2.56c-1.16-0.51-5.14-4.46-6.05-3.71c-0.12,0.1-0.26,0.13-0.38,0.12
							c-0.83,3.36-2.09,6.61-4.87,8.67c-1.34,1-2.92,1.44-3.98,2.8c-1.17,1.5-1.33,3.25-0.97,5.07c0.48,2.43,1.66,4.66,2.32,7.05
							c0.55,1.99,0.78,4.21-0.17,6.13c-0.97,1.95-3.03,3.11-4.8,4.23c-2.73,1.74-5.62,3.88-6.59,7.16
							c-0.19,0.65-0.14,1.83-0.44,2.66c0.94,0.02,1.67-0.18,1.96-0.75c1.08-2.17,2-5.58,5.17-7.33c3.17-1.75,7.17-4.67,7.17-4.67
							l22.33-2.08c0,0,1.8,0.87,3.71,1.7c-0.8-2.2-1.84-4.41-1.93-6.97C208.81,267.71,209.21,266.31,209.27,264.88z"/>
						<path id="XMLID_14_" class="st48" d="M190.58,243c0,0-0.33,6.33-5.58,11.92c0,0-2.92,2.83-2.83,5.5
							c0.08,2.67,3.25,11.67,3.25,11.67s1.42,3.17-0.67,4.42c0,0,10.75,9.92,21.67-1.17l0.67-0.92c0,0-3.08-0.92-3.25-3.58
							c-0.02-0.27,0.94-1.23,1.09-1.46c0.86-1.29,1.56-2.69,2.09-4.15c1.69-4.62,1.44-9.67-0.61-14.13
							c-0.47-1.02-0.87-2.17-1.73-2.94c-1.1-0.98-2.43-0.64-3.78-0.78c-1.15-0.12-2.29-0.32-3.41-0.61
							c-1.25-0.32-2.48-0.76-3.63-1.35C193.31,245.12,190.55,243.71,190.58,243z"/>
						<path id="XMLID_114_" class="st53" d="M185.13,256.57c1.35-2.12,3.11-4,4.19-6.3c0.81-1.74,1.12-3.71,1.04-5.67
							c-0.44,2.24-1.72,6.45-5.35,10.31c0,0-2.92,2.83-2.83,5.5c0.03,0.83,0.35,2.26,0.78,3.85
							C182.85,261.63,183.57,259.02,185.13,256.57z"/>
						<path id="XMLID_113_" class="st53" d="M207.77,262.43c0.74-3.81,0.28-7.76-1.37-11.34c-0.47-1.02-0.87-2.17-1.73-2.94
							c-0.31-0.28-0.63-0.44-0.97-0.55C206.97,251.41,207.96,257.03,207.77,262.43z"/>
						<path id="XMLID_112_" class="st53" d="M203.83,270.83c0-0.04,0.03-0.11,0.07-0.19c-0.04,0-0.08,0.02-0.12,0.02
							c-2.25,1.13-3.97,2.97-6.67,2.44c-0.01,0-0.03,0.01-0.05,0.01c-0.17,0.04-0.34,0.06-0.51,0.1c-0.79,0.28-1.6,0.5-2.45,0.55
							c-2.24,0.14-4.46-0.57-6.62-1.04c-0.22-0.05-0.33-0.2-0.35-0.37c-0.05-0.01-0.1-0.03-0.15-0.04c2.8,3.59,8.3,3.28,12.36,2.7
							c2.04-0.29,4.14-0.63,6.02-1.5C204.63,272.94,203.91,272.08,203.83,270.83z"/>
						<path id="XMLID_19_" d="M186.25,257.83c0.21,0.62,0.41,1.23,0.69,1.81c0.13,0.29,0.25,0.59,0.41,0.86
							c0.14,0.28,0.32,0.54,0.5,0.79c0.19,0.24,0.39,0.46,0.61,0.66c0.11,0.1,0.23,0.16,0.35,0.24c0.11,0.09,0.25,0.09,0.37,0.15
							c0.12,0.06,0.26,0.03,0.38,0.05c0.13,0.03,0.26-0.02,0.39-0.05c0.13-0.02,0.26-0.05,0.39-0.13l0.39-0.19l0.06-0.03l-0.03,0.01
							c-0.01,0.01,0.11-0.1,0.15-0.2c0.06-0.1,0.1-0.23,0.13-0.36c0.06-0.26,0.07-0.55,0.07-0.85c-0.01-0.6-0.14-1.2-0.27-1.81
							c-0.14-0.61-0.33-1.21-0.54-1.81c-0.18-0.61-0.42-1.2-0.62-1.81c0.35,0.54,0.66,1.1,0.96,1.67c0.28,0.58,0.53,1.17,0.75,1.79
							c0.22,0.61,0.38,1.26,0.43,1.94c0.03,0.34,0.01,0.69-0.06,1.05c-0.04,0.18-0.1,0.36-0.19,0.54c-0.11,0.18-0.18,0.34-0.46,0.52
							l0.03-0.02l-0.49,0.24c-0.16,0.09-0.34,0.14-0.53,0.17c-0.19,0.03-0.37,0.09-0.57,0.06c-0.19-0.03-0.4,0-0.57-0.09
							c-0.17-0.08-0.37-0.12-0.52-0.24c-0.15-0.11-0.31-0.21-0.44-0.34l-0.36-0.39l-0.29-0.43
							C186.68,260.43,186.36,259.14,186.25,257.83z"/>
						<path id="XMLID_21_" d="M194.67,251.58c0,0,0.06,0.17,0.14,0.46c0.08,0.29,0.22,0.7,0.42,1.16c0.2,0.46,0.5,0.96,0.91,1.39
							c0.2,0.22,0.45,0.4,0.7,0.57c0.25,0.15,0.57,0.3,0.89,0.46c0.31,0.16,0.62,0.33,0.93,0.53c0.3,0.2,0.61,0.44,0.82,0.81
							c0.22,0.39,0.17,0.83,0.08,1.14c-0.09,0.32-0.23,0.58-0.36,0.82c-0.25,0.47-0.54,0.83-0.77,1.05
							c-0.24,0.23-0.45,0.22-0.44,0.21c0,0.02,0.18-0.05,0.33-0.3c0.17-0.24,0.32-0.64,0.49-1.12c0.16-0.47,0.35-1.09,0.1-1.45
							c-0.27-0.38-0.92-0.7-1.52-1.01c-0.3-0.16-0.61-0.31-0.94-0.52c-0.31-0.21-0.58-0.47-0.81-0.74
							c-0.23-0.27-0.39-0.57-0.53-0.85c-0.14-0.29-0.23-0.57-0.29-0.83c-0.13-0.53-0.15-0.97-0.16-1.28
							C194.66,251.76,194.67,251.58,194.67,251.58z"/>
						<path id="XMLID_24_" d="M199.58,250.25c0,0,0.41,0.85,1.1,2.07c0.34,0.61,0.77,1.31,1.27,2c0.24,0.35,0.54,0.67,0.84,0.96
							c0.3,0.28,0.7,0.47,0.9,0.41c-0.04,0.03,0.09-0.08,0.11-0.26c0.03-0.18,0.04-0.39,0.03-0.61c-0.02-0.43-0.08-0.87-0.16-1.29
							c-0.16-0.85-0.33-1.65-0.51-2.33c-0.35-1.37-0.58-2.28-0.58-2.28s0.46,0.83,0.98,2.15c0.24,0.67,0.54,1.44,0.76,2.32
							c0.1,0.44,0.21,0.89,0.24,1.39c0.02,0.25,0.02,0.5-0.03,0.78c-0.06,0.26-0.14,0.66-0.63,0.85c-0.74,0.13-1.22-0.28-1.59-0.6
							c-0.36-0.36-0.65-0.74-0.89-1.12c-0.49-0.76-0.82-1.53-1.1-2.19c-0.28-0.66-0.44-1.23-0.57-1.62
							C199.62,250.49,199.58,250.25,199.58,250.25z"/>
						<path id="XMLID_25_" class="st54" d="M196.75,263c0,0.01,0.05-0.04,0.18-0.02c0.11,0.02,0.27,0.05,0.44,0.11
							c0.34,0.1,0.74,0.12,1.15-0.02c0.2-0.06,0.41-0.15,0.59-0.25c0.19-0.09,0.37-0.19,0.53-0.28c0.31-0.18,0.54-0.29,0.54-0.29
							s-0.03,0.06-0.09,0.15c-0.07,0.08-0.14,0.23-0.27,0.36c-0.25,0.27-0.64,0.62-1.15,0.78c-0.25,0.08-0.53,0.11-0.79,0.06
							c-0.26-0.04-0.47-0.16-0.62-0.26c-0.16-0.1-0.26-0.22-0.35-0.27C196.82,263.01,196.74,263,196.75,263z"/>
						<path id="XMLID_26_" class="st55" d="M183.08,256.83c0,0-0.09-0.52,0.2-1.26c0.15-0.36,0.38-0.76,0.72-1.12
							c0.33-0.36,0.76-0.68,1.22-0.92c0.46-0.23,0.95-0.41,1.42-0.5c0.47-0.1,0.91-0.12,1.28-0.12c0.37-0.01,0.69,0.06,0.9,0.09
							c0.22,0.04,0.34,0.07,0.34,0.07s-0.12,0.05-0.32,0.13c-0.2,0.07-0.49,0.16-0.83,0.28c-0.34,0.12-0.72,0.24-1.12,0.4
							c-0.21,0.06-0.4,0.17-0.6,0.25c-0.21,0.07-0.4,0.18-0.6,0.29c-0.4,0.19-0.76,0.44-1.09,0.68c-0.15,0.13-0.32,0.25-0.45,0.39
							c-0.14,0.13-0.26,0.27-0.38,0.39C183.33,256.39,183.08,256.83,183.08,256.83z"/>
						<path id="XMLID_27_" class="st55" d="M198.17,249.25c0,0-0.04-0.44,0.27-1.01c0.15-0.28,0.39-0.6,0.72-0.85
							c0.32-0.27,0.74-0.44,1.17-0.56c0.43-0.09,0.87-0.11,1.26-0.05c0.4,0.04,0.74,0.16,1.03,0.28c0.29,0.11,0.5,0.27,0.65,0.36
							c0.15,0.1,0.23,0.17,0.23,0.17s-0.11,0.01-0.29,0.02c-0.18,0.02-0.42,0-0.71,0.01c-0.29,0.01-0.61,0.01-0.94,0.04
							c-0.17-0.01-0.33,0.05-0.5,0.05c-0.17,0-0.33,0.06-0.5,0.09c-0.17,0.03-0.32,0.09-0.48,0.13c-0.14,0.08-0.31,0.1-0.44,0.19
							c-0.29,0.13-0.54,0.31-0.76,0.47C198.45,248.93,198.17,249.25,198.17,249.25z"/>
						<path id="XMLID_37_" class="st56" d="M186.5,271.88c0,0,0.23,0.18,0.66,0.45c0.43,0.26,1.08,0.57,1.88,0.88
							c0.41,0.12,0.85,0.29,1.33,0.37c0.48,0.12,0.99,0.17,1.52,0.25c0.53,0.06,1.08,0.07,1.64,0.07c0.56-0.05,1.13-0.03,1.69-0.14
							c0.56-0.08,1.13-0.14,1.68-0.29c0.55-0.14,1.09-0.24,1.6-0.43c0.5-0.18,1.01-0.31,1.47-0.5c0.46-0.19,0.89-0.37,1.29-0.54
							c0.8-0.32,1.43-0.68,1.89-0.89c0.46-0.22,0.72-0.34,0.72-0.34s-0.24,0.16-0.67,0.43c-0.44,0.25-1.03,0.7-1.82,1.06
							c-0.39,0.19-0.82,0.4-1.27,0.62c-0.46,0.21-0.96,0.38-1.47,0.57c-0.51,0.21-1.07,0.32-1.63,0.47
							c-0.55,0.17-1.14,0.24-1.72,0.33c-0.58,0.11-1.17,0.08-1.75,0.11c-0.58-0.01-1.15-0.04-1.7-0.11
							c-0.55-0.08-1.07-0.17-1.56-0.32c-0.49-0.12-0.93-0.31-1.35-0.46c-0.81-0.35-1.42-0.76-1.84-1.06
							C186.7,272.09,186.5,271.88,186.5,271.88z"/>
						<g id="XMLID_87_">
							<path id="XMLID_88_" class="st55" d="M187,243c0,0-0.27,0.73-0.83,1.97c-0.59,1.23-1.39,3.02-2.86,4.88
								c-0.71,0.96-1.83,1.66-2.52,2.76c-0.75,1.08-1.28,2.38-1.66,3.77c-0.37,1.39-0.53,2.88-0.42,4.38
								c0.04,0.75,0.18,1.5,0.38,2.23c0.2,0.72,0.5,1.44,0.77,2.18c0.51,1.49,0.89,3.02,1.07,4.57c0.15,1.54,0.13,3.13-0.49,4.54
								c-0.31,0.7-0.85,1.32-1.55,1.63c-0.64,0.3-1.24,0.59-1.83,0.92c-1.16,0.65-2.19,1.37-3.05,2.14
								c-0.86,0.77-1.55,1.58-2.03,2.39c-0.45,0.82-0.73,1.6-0.81,2.28c-0.08,0.67-0.07,1.21-0.01,1.57
								c0.05,0.36,0.08,0.55,0.08,0.55s-0.03-0.19-0.1-0.55c-0.08-0.36-0.11-0.9-0.05-1.58c0.06-0.69,0.3-1.5,0.73-2.35
								c0.45-0.85,1.13-1.71,1.99-2.51c0.86-0.81,1.9-1.56,3.06-2.25c0.58-0.34,1.21-0.66,1.83-0.97c0.59-0.28,1.05-0.81,1.33-1.44
								c0.56-1.28,0.58-2.82,0.42-4.31c-0.18-1.5-0.57-3-1.07-4.45c-0.26-0.72-0.56-1.45-0.76-2.22c-0.2-0.77-0.34-1.54-0.38-2.32
								c-0.11-1.56,0.07-3.1,0.46-4.53c0.39-1.43,0.99-2.75,1.78-3.86c0.78-1.17,1.91-1.82,2.61-2.73c1.47-1.79,2.38-3.53,3-4.73
								C186.71,243.72,187,243,187,243z"/>
							<path id="XMLID_89_" class="st55" d="M185.5,242.25c0,0-0.78,0.21-2.01,0.88c-1.22,0.66-2.92,1.81-4.33,3.72
								c-0.72,0.94-1.33,2.09-1.72,3.39c-0.43,1.28-0.6,2.72-0.74,4.21c-0.14,1.48-0.18,3.02-0.11,4.59
								c0.03,1.57,0.34,3.13,0.21,4.81c-0.04,0.42-0.17,0.84-0.38,1.23c-0.23,0.39-0.47,0.67-0.67,1.01
								c-0.42,0.66-0.8,1.36-1.21,2.04c-0.41,0.68-0.84,1.35-1.35,1.96c-0.51,0.6-1.15,1.17-1.97,1.34
								c-0.2,0.06-0.41,0.05-0.61,0.05c-0.18,0-0.37-0.02-0.55-0.02c-0.34,0.01-0.68,0.04-1,0.15c-0.64,0.2-1.16,0.66-1.56,1.19
								c-0.75,1.1-1.1,2.37-1.35,3.53c-0.12,0.58-0.21,1.15-0.28,1.69c-0.08,0.54-0.13,1.05-0.17,1.54
								c-0.1,0.97-0.11,1.82-0.15,2.52c-0.02,1.4-0.03,2.2-0.03,2.2s-0.02-0.8-0.05-2.2c0.02-0.7-0.01-1.55,0.06-2.53
								c0.04-0.98,0.13-2.08,0.35-3.27c0.23-1.18,0.54-2.49,1.33-3.69c0.41-0.58,0.99-1.11,1.73-1.36c0.36-0.13,0.75-0.18,1.15-0.19
								c0.38,0.01,0.74,0.06,1.05-0.03c0.66-0.14,1.24-0.64,1.72-1.21c0.48-0.57,0.89-1.23,1.29-1.9c0.4-0.67,0.78-1.37,1.21-2.06
								c0.2-0.35,0.48-0.69,0.65-0.99c0.17-0.32,0.28-0.67,0.32-1.05c0.14-1.52-0.15-3.15-0.18-4.72c-0.06-1.59,0-3.15,0.15-4.65
								c0.07-0.76,0.18-1.48,0.29-2.2c0.17-0.71,0.28-1.42,0.54-2.08c0.44-1.33,1.09-2.49,1.84-3.44c0.74-0.96,1.56-1.73,2.35-2.31
								c0.79-0.58,1.53-1.02,2.16-1.32C184.71,242.43,185.5,242.25,185.5,242.25z"/>
							<path id="XMLID_91_" class="st55" d="M191.25,241.75c0,0,2.42,0.85,6.07,2.05c0.91,0.3,1.9,0.63,2.95,0.94
								c0.53,0.16,1.07,0.32,1.62,0.45c0.57,0.12,1.15,0.29,1.71,0.61c1.11,0.6,1.97,1.59,2.7,2.64c0.73,1.06,1.31,2.22,1.84,3.4
								c1.04,2.37,1.77,4.84,2.47,7.14c0.71,2.29,1.43,4.41,2.06,6.23c0.64,1.81,1.04,3.39,1.1,4.52c0.04,0.56,0.03,1,0.01,1.3
								c-0.02,0.3-0.03,0.46-0.03,0.46s0-0.16,0.01-0.46c0-0.3,0-0.74-0.07-1.3c-0.07-0.55-0.19-1.22-0.42-1.97
								c-0.22-0.74-0.53-1.57-0.86-2.47c-0.67-1.8-1.48-3.9-2.21-6.19c-0.72-2.29-1.47-4.74-2.51-7.07
								c-0.51-1.17-1.07-2.31-1.77-3.34c-0.69-1.02-1.51-1.96-2.52-2.52c-0.25-0.16-0.5-0.25-0.77-0.35
								c-0.29-0.09-0.55-0.17-0.84-0.24c-0.56-0.16-1.1-0.33-1.63-0.5c-1.05-0.35-2.03-0.7-2.94-1.02c-1.81-0.65-3.3-1.25-4.34-1.66
								C191.85,241.99,191.25,241.75,191.25,241.75z"/>
							<path id="XMLID_92_" class="st55" d="M208,264.25c0,0,0.3,0.49,0.62,1.29c0.14,0.4,0.32,0.87,0.44,1.4
								c0.14,0.52,0.22,1.09,0.27,1.67c0.03,0.58,0.03,1.16-0.04,1.7c-0.05,0.27-0.07,0.53-0.15,0.77
								c-0.07,0.24-0.12,0.47-0.21,0.67c-0.15,0.41-0.33,0.72-0.47,0.93c-0.14,0.21-0.22,0.33-0.22,0.33s0.05-0.13,0.13-0.37
								c0.11-0.22,0.18-0.57,0.29-0.97c0.06-0.2,0.07-0.43,0.12-0.66c0.05-0.23,0.04-0.49,0.07-0.74c0.03-0.52,0.02-1.07-0.02-1.62
								c-0.09-1.1-0.29-2.2-0.48-3.02C208.16,264.8,208,264.25,208,264.25z"/>
						</g>
						
							<ellipse id="XMLID_356_" transform="matrix(0.9908 -0.1351 0.1351 0.9908 -34.1809 28.1045)" class="st57" cx="190" cy="265.92" rx="1.17" ry="0.75"/>
						
							<ellipse id="XMLID_358_" transform="matrix(0.9856 -0.1693 0.1693 0.9856 -40.8302 38.41)" class="st57" cx="204.84" cy="258.66" rx="1.17" ry="0.75"/>
					</g>
				</g>
			</g>
			<g id="XMLID_72_">
				<g id="XMLID_150_">
					<g id="XMLID_361_">
						<path id="XMLID_39_" class="st28" d="M381.17,46.33c0,0-0.43-0.3-0.94-0.91c-1.15-1.37-2.73-4.31-0.89-8.92
							c2.6-6.5,8.37-14.27,17-12.18c0.22,0.05,0.44,0.11,0.67,0.18c0,0,2.5,0.17,2.83,1.5c0,0,6-1.33,12.17,5.5s4.5,13.67,3.5,17.67
							S410.33,57,410.33,57s8.33,3.67,10.67,10.67s-2.5,12.17-4.83,13.67L414.5,82c0,0,1.83-9.67-5.5-15.17s-9.5-5.67-9.5-5.67
							l-18.76-15.13"/>
						<path id="XMLID_369_" class="st58" d="M411.1,66.16c-2.5-1.68-6.98-3.41-7.21-6.94c-0.14-2.17,1.24-4.4,1.82-6.45
							c0.91-3.21,2-6.16,0.47-9.39c-1.1-2.33-3.04-4.12-4.48-6.23c-1.46-2.15-2.68-4.45-3.94-6.72c-0.01,3.93,0.98,7.28,3.58,10.33
							c1.89,2.22,2.04,4.15,1.83,7c-0.27,3.59-2.2,6.47-2.77,9.94c-0.22,1.33,0.01,2.66,0.51,3.94c1.37,0.62,3.87,2.01,8.09,5.18
							c7.33,5.5,5.5,15.17,5.5,15.17l1.67-0.67c0.28-0.18,0.6-0.42,0.93-0.7l0,0C416.22,75.08,416.26,69.62,411.1,66.16z"/>
						<path id="XMLID_370_" class="st58" d="M383.86,38.2c0.99-1.46,2.5-2.2,4.09-2.83c1.63-0.65,4.79-1.56,5.11-3.61
							c-4.05,0.57-8.41-0.28-11.57,2.99c-2.17,2.25-2.47,5.44-2.54,8.46c0.35,0.96,0.84,1.7,1.28,2.22
							c0.02,0.03,0.04,0.04,0.06,0.07c0.47-0.63,0.87-1.25,1.17-1.73C382.52,42.02,382.71,39.88,383.86,38.2z"/>
						<g id="XMLID_354_">
							<g id="XMLID_350_">
								<path class="st59" d="M400.67,28.83c0.4,2.74,1.23,5.8,3.62,7.4c3.9,1.43,6.46,5.41,6.28,9.55
									c-0.04,3.51-1.4,6.81-3.01,9.86c-0.65,1.46-2.05,2.86-2.15,4.45c0.04,0.45,0.6,0.71,1.07,1.03
									c4.59,2.95,10.21,6.97,10.01,13.05c0.04-4.76-3.77-8.27-7.38-10.81c-1.17-0.82-2.4-1.54-3.59-2.35
									c-0.24-0.2-0.5-0.47-0.55-0.83c-0.09-0.7,0.24-1.25,0.48-1.76c3.87-6.16,8.01-16.26,0.21-21.15
									C402.2,36.04,400.95,32.18,400.67,28.83L400.67,28.83z"/>
							</g>
							<g id="XMLID_353_">
								<path class="st59" d="M403.67,28.67c4.47,3.32,10.2,7.81,10.86,13.72c-0.15,6.07-2.95,11.61-5.67,16.88
									c0,0-0.14-0.32-0.14-0.32c4.98,1.34,10.67,4.93,10.45,10.71c-0.01-5.68-5.65-9.02-10.55-10.29c0,0-0.27-0.07-0.27-0.07
									s0.13-0.25,0.13-0.25c2.62-5.18,5.4-10.78,5.6-16.65c-0.17-2.94-2.03-5.51-3.89-7.7C408.24,32.49,406.05,30.45,403.67,28.67
									L403.67,28.67z"/>
							</g>
							<g id="XMLID_352_">
								<path class="st59" d="M396.17,27.67c-2.3,1.13-4.68,2.12-7.13,2.87c-3.57,0.95-9.18,2.73-9.37,7.13
									c-0.31-4.57,5.6-6.73,9.24-7.57C391.36,29.39,393.76,28.53,396.17,27.67L396.17,27.67z"/>
							</g>
							<g id="XMLID_355_">
								<path class="st59" d="M393.83,26.67c-0.89-1.02-2.33-0.5-3.41-0.11c-1.18,0.45-2.27,1.08-3.43,1.61
									c0.48-0.43,0.98-0.84,1.53-1.18C389.9,26.1,392.78,24.73,393.83,26.67L393.83,26.67z"/>
							</g>
						</g>
					</g>
					<g id="XMLID_149_">
						<path id="XMLID_40_" d="M362.88,184l0.25,10.38c0,0-16.25,5.75-17.62,10.88c0,0,0,2,1.12,2.12s23.75-5.25,23.75-5.25
							L370,183.25C370,183.25,363.38,181.5,362.88,184z"/>
						<path id="XMLID_41_" d="M347.66,183.03l0.23,9.64c0,0-15.1,5.34-16.38,10.11c0,0,0,1.86,1.05,1.97s22.07-4.88,22.07-4.88
							l-0.35-17.54C354.28,182.33,348.12,180.71,347.66,183.03z"/>
						<path id="XMLID_32_" class="st25" d="M380.67,60.33c0,0-9.33,3.83-11.83,6c-2.5,2.17-5.17,16-12.5,25.33l13.33,2.67
							c0,0,4,29,2.5,28.83c-1.22-0.14-13.94-3.81-18.62-5.17c-1.07-0.31-1.71-0.5-1.71-0.5s-13,2-11,27.5s3.67,39,3.67,39
							s12.67,2.17,14.5-1.5c0,0,4.67,4.5,14.5,0.67c0,0-0.67-44.17,3.17-46.67C380.5,134,415.33,145,414,120l-1.83-8.5
							c0,0,0.33-3.5-0.17-6.83c0,0,1.67-2.17,2.33-6.17c0.67-4,3.33-24.17-0.33-28.5s-11.5-8.33-11.5-8.33L380.67,60.33z"/>
						<path id="XMLID_147_" class="st60" d="M414,120l-1.83-8.5c0,0,0.02-0.18,0.04-0.48c-5.84,1.91-11.91,3.06-18.04,3.81
							c-0.19,0.02-0.31-0.05-0.39-0.16c-0.65,0.08-1.31,0.13-1.96,0.18c-0.63,0.33-1.26,0.65-1.9,0.93
							c-0.88,0.69-1.9,1.44-2.98,1.45c-0.41,0-0.74-0.11-1.02-0.29c-0.78-0.17-1.43-0.8-1.8-2.11c-4.07-0.28-8.12-0.91-12.17-1.55
							c0.54,5.45,0.81,9.94,0.21,9.88c-1.22-0.14-13.94-3.81-18.62-5.17c-1.07-0.31-1.71-0.5-1.71-0.5s-13,2-11,27.5
							s3.67,39,3.67,39s12.67,2.17,14.5-1.5c0,0,4.67,4.5,14.5,0.67c0,0-0.67-44.17,3.17-46.67C380.5,134,415.33,145,414,120z"/>
						<g id="XMLID_142_">
							<polygon id="XMLID_31_" class="st61" points="332.5,82.17 336.17,114.67 374.33,127 387.17,119.17 373.67,113 369.67,90.5 
															"/>
							<ellipse id="XMLID_364_" class="st62" cx="351.75" cy="103.75" rx="2.75" ry="2.62"/>
							<path id="XMLID_152_" class="st63" d="M373.74,113.03c-0.02,0.14-0.09,0.25-0.18,0.32c0.15,4.49,0.72,8.96,1.11,13.44
								l12.5-7.63L373.74,113.03z"/>
						</g>
						<path id="XMLID_36_" class="st22" d="M382.9,112.18c0,0-1.27-0.26-1.67-0.18c-1.68,0.34-7.66,1.11-7.56,2.08
							c0.17,1.5,0.25,3.83,0.42,4.42c0.18,0.62,10.67-2.79,10.67-2.79L382.9,112.18z"/>
						<g id="XMLID_56_">
							<path id="XMLID_33_" class="st64" d="M411,67.5c0,0-0.49-0.03-1.25,0.25c-0.76,0.27-1.72,0.99-2.37,2.2
								c-0.35,0.59-0.61,1.29-0.81,2.05c-0.2,0.75-0.33,1.61-0.46,2.47c-0.24,1.72-0.45,3.61-0.62,5.48
								c-0.35,3.76-0.71,7.52-0.97,10.34c-0.12,1.41-0.28,2.59-0.36,3.41C404.06,94.53,404,95,404,95s-0.03-0.47-0.04-1.3
								c0-0.83-0.04-2.02-0.01-3.44c0.03-1.42,0.05-3.08,0.15-4.85c0.08-1.78,0.23-3.67,0.4-5.56c0.19-1.89,0.41-3.77,0.75-5.55
								c0.15-0.89,0.36-1.72,0.63-2.52c0.27-0.79,0.61-1.52,1.03-2.13c0.8-1.27,1.98-1.89,2.79-2.08c0.41-0.1,0.75-0.11,0.97-0.1
								C410.88,67.48,411,67.5,411,67.5z"/>
							<path id="XMLID_35_" class="st64" d="M408.83,92c0,0-0.86,0.64-2.36,1.77c-1.51,1.12-3.66,2.71-6.24,4.62
								c-2.59,1.9-5.6,4.13-8.84,6.51c-1.62,1.19-3.28,2.42-4.96,3.69c-0.83,0.64-1.67,1.29-2.47,1.96c-0.2,0.17-0.4,0.34-0.56,0.51
								l-0.11,0.12c0.04-0.02,0.02-0.08,0.02-0.11l-0.01,0.2l0.02,0.13c0.06,0.43,0.2,0.96,0.36,1.44c0.32,0.98,0.73,1.95,1.25,2.81
								c0.26,0.42,0.57,0.82,0.9,1.07c0.35,0.29,0.52,0.09,1.08-0.04c1.93-0.68,3.82-1.59,5.63-2.44c3.61-1.73,6.99-3.36,9.86-4.81
								c5.76-2.86,9.59-4.76,9.59-4.76s-0.93,0.54-2.55,1.48c-1.63,0.92-3.95,2.26-6.78,3.79c-2.83,1.52-6.12,3.32-9.74,5.09
								c-1.82,0.87-3.67,1.79-5.71,2.54c-0.28,0.08-0.49,0.18-0.91,0.23c-0.11,0.02-0.18,0.02-0.24,0.01l-0.1,0
								c0.07,0.02-0.13-0.02-0.12-0.02l-0.03-0.01l-0.06-0.03c-0.16-0.07-0.34-0.14-0.46-0.25c-0.53-0.39-0.87-0.85-1.18-1.33
								c-0.6-0.96-1.04-1.97-1.39-3.02c-0.16-0.54-0.31-1.04-0.39-1.68l-0.02-0.27l0.01-0.2c0.01-0.16,0.11-0.32,0.2-0.46l0.16-0.17
								c0.22-0.22,0.42-0.39,0.63-0.56c0.84-0.69,1.69-1.33,2.53-1.97c1.69-1.26,3.38-2.48,5.01-3.65c3.27-2.34,6.38-4.44,9.02-6.26
								c2.65-1.82,4.9-3.28,6.45-4.32C407.94,92.58,408.83,92,408.83,92z"/>
							<path id="XMLID_74_" class="st64" d="M372,64.5c0,0-0.12,0.4-0.33,1.09c-0.21,0.69-0.45,1.7-0.74,2.89
								c-0.29,1.2-0.57,2.61-0.84,4.12c-0.15,0.75-0.25,1.54-0.38,2.34c-0.14,0.79-0.22,1.61-0.33,2.42
								c-0.21,1.63-0.34,3.26-0.45,4.79c-0.04,0.77-0.09,1.51-0.13,2.22c-0.06,0.71-0.04,1.37-0.06,1.99c0,0.62-0.05,1.18-0.04,1.69
								c0,0.5,0,0.94-0.01,1.3c-0.02,0.73-0.02,1.14-0.02,1.14s-0.07-0.41-0.17-1.13c-0.08-0.72-0.27-1.75-0.32-2.99
								c-0.03-0.62-0.1-1.3-0.1-2.01c-0.01-0.71-0.04-1.47-0.02-2.25c0.04-0.78,0.05-1.59,0.11-2.4c0.08-0.82,0.14-1.65,0.23-2.47
								c0.13-0.82,0.21-1.65,0.37-2.46c0.14-0.81,0.3-1.6,0.48-2.36c0.33-1.53,0.78-2.92,1.16-4.1c0.39-1.19,0.82-2.14,1.1-2.8
								C371.8,64.86,372,64.5,372,64.5z"/>
						</g>
						<g id="XMLID_75_">
							<path class="st65" d="M359,182.5c-1.66-11.89-5.75-49.25-0.12-58.59c0.38-0.51,0.97-0.93,1.62-0.91
								c-0.65,0.04-1.17,0.49-1.5,1c-2.02,3.93-1.76,8.63-2.01,12.95c-0.1,5.06,0,10.12,0.24,15.18
								C357.52,160.96,358.44,173.56,359,182.5L359,182.5z"/>
						</g>
					</g>
				</g>
				<g id="XMLID_363_">
					<g id="XMLID_362_">
						<path id="XMLID_30_" class="st22" d="M397.71,29c0,0,0.33,6.33,5.58,11.92c0,0,2.92,2.83,2.83,5.5
							c-0.08,2.67-3.25,11.67-3.25,11.67s-1.42,3.17,0.67,4.42c0,0-10.75,9.92-21.67-1.17l-0.67-0.92c0,0,3.08-0.92,3.25-3.58
							c0.02-0.27-0.94-1.23-1.09-1.46c-0.86-1.29-1.56-2.69-2.09-4.15c-1.69-4.62-1.44-9.67,0.61-14.13
							c0.47-1.02,0.87-2.17,1.73-2.94c1.1-0.98,2.43-0.64,3.78-0.78c1.15-0.12,2.29-0.32,3.41-0.61c1.25-0.32,2.48-0.76,3.63-1.35
							C394.99,31.12,397.75,29.71,397.71,29z"/>
						<path id="XMLID_372_" class="st66" d="M382.33,37.5c1.09-2.41,2.82-3.33,5.38-3.59c2.41-0.24,4.83-0.41,7.05-1.48
							c1.25-0.6,1.72-1.35,2.62-2.27c0.17-0.17,0.29-0.3,0.42-0.41c-0.07-0.47-0.08-0.75-0.08-0.75c0.04,0.71-2.72,2.12-3.27,2.4
							c-1.15,0.59-2.38,1.03-3.63,1.35c-1.12,0.29-2.26,0.49-3.41,0.61c-1.35,0.15-2.68-0.2-3.78,0.78
							c-0.86,0.77-1.26,1.92-1.73,2.94c-1.94,4.21-2.24,8.94-0.86,13.34C380.27,46.1,380.43,41.69,382.33,37.5z"/>
						<path id="XMLID_374_" class="st66" d="M389.98,61.14c2.3,0.07,5.11-0.15,7.08-1.54c-0.78,0.28-1.62,0.41-2.48,0.39
							c-0.17,0-0.29-0.08-0.37-0.19c-0.16,0.04-0.33,0.07-0.5,0.08c-1.1,0.12-2.24-0.12-3.3-0.39c-2.14-0.53-3.97-1.77-5.99-2.47
							c-0.04,0.28-0.1,0.55-0.19,0.79c0.03,0.07,0.05,0.13,0.08,0.2c0.15,0.38-0.19,0.62-0.52,0.59c-0.39,0.54-0.9,0.93-1.37,1.21
							C384.57,60.97,387.71,61.07,389.98,61.14z"/>
						<path id="XMLID_28_" class="st67" d="M399.75,57.68c0,0-0.16,0.22-0.52,0.54c-0.36,0.31-0.9,0.74-1.65,1.12
							c-0.38,0.16-0.78,0.37-1.24,0.5c-0.45,0.16-0.94,0.28-1.46,0.36c-0.51,0.08-1.06,0.12-1.6,0.13
							c-0.54-0.04-1.11-0.01-1.65-0.13c-0.55-0.09-1.1-0.17-1.62-0.35c-0.52-0.15-1.04-0.29-1.51-0.51
							c-0.47-0.2-0.94-0.38-1.35-0.61c-0.41-0.23-0.8-0.45-1.16-0.65c-0.72-0.39-1.23-0.86-1.63-1.11
							c-0.38-0.29-0.59-0.45-0.59-0.45s0.24,0.12,0.67,0.33c0.43,0.21,1.01,0.54,1.75,0.86c0.37,0.16,0.76,0.34,1.18,0.52
							c0.42,0.18,0.89,0.3,1.35,0.49c0.46,0.19,0.97,0.29,1.47,0.43c0.5,0.16,1.02,0.22,1.54,0.3c0.52,0.12,1.04,0.1,1.56,0.14
							c0.51-0.01,1.02,0,1.51-0.06c0.49-0.07,0.96-0.12,1.4-0.23c0.45-0.08,0.84-0.24,1.22-0.36c0.74-0.29,1.34-0.59,1.73-0.85
							C399.53,57.86,399.75,57.68,399.75,57.68z"/>
					</g>
					<g id="XMLID_375_">
						<path id="XMLID_29_" class="st68" d="M391.54,49c0.01,0-0.09,0.03-0.13,0.12c-0.06,0.08-0.15,0.21-0.3,0.35
							c-0.15,0.14-0.38,0.28-0.67,0.35c-0.29,0.08-0.61,0.04-0.89-0.04c-0.56-0.19-0.95-0.58-1.17-0.91
							c-0.21-0.33-0.27-0.62-0.27-0.62s0.29,0.04,0.63,0.17c0.18,0.05,0.36,0.13,0.55,0.2c0.09,0.05,0.19,0.07,0.28,0.11
							c0.09,0.04,0.18,0.07,0.27,0.09c0.35,0.13,0.65,0.16,1.01,0.13c0.17-0.02,0.34-0.03,0.48-0.02
							C391.51,48.94,391.53,49.01,391.54,49z"/>
						<g id="XMLID_371_">
							<path id="XMLID_124_" class="st69" d="M393.63,37.58c0,0,0.01,0.18,0.03,0.49c0.01,0.31,0,0.76-0.12,1.3
								c-0.06,0.27-0.14,0.56-0.28,0.85c-0.14,0.29-0.29,0.6-0.53,0.88c-0.23,0.28-0.5,0.55-0.82,0.77
								c-0.34,0.22-0.65,0.37-0.95,0.53c-0.6,0.3-1.24,0.63-1.48,0.95c-0.1,0.15-0.14,0.35-0.11,0.61c0.04,0.25,0.1,0.51,0.18,0.76
								c0.15,0.48,0.29,0.88,0.44,1.13c0.14,0.26,0.31,0.34,0.31,0.32c0.01,0.01-0.21,0.03-0.46-0.19c-0.25-0.2-0.55-0.57-0.82-1.03
								c-0.14-0.23-0.28-0.49-0.38-0.82c-0.1-0.31-0.16-0.79,0.07-1.21c0.23-0.4,0.55-0.66,0.85-0.86c0.31-0.2,0.62-0.38,0.94-0.54
								c0.32-0.16,0.64-0.31,0.88-0.45c0.25-0.16,0.49-0.33,0.69-0.54c0.41-0.41,0.71-0.89,0.93-1.34c0.22-0.45,0.36-0.85,0.46-1.14
								C393.56,37.75,393.63,37.58,393.63,37.58z"/>
							<g id="XMLID_359_">
								<path id="XMLID_145_" d="M402.04,43.83c-0.01,0.66-0.14,1.31-0.28,1.96c-0.09,0.32-0.18,0.64-0.31,0.96
									c-0.11,0.32-0.28,0.62-0.44,0.93l-0.29,0.44c-0.12,0.14-0.24,0.27-0.37,0.41c-0.13,0.13-0.3,0.24-0.45,0.35
									c-0.15,0.12-0.36,0.17-0.54,0.26c-0.18,0.1-0.4,0.07-0.6,0.1c-0.21,0.03-0.4-0.02-0.59-0.06c-0.2-0.03-0.39-0.08-0.55-0.17
									l-0.51-0.24l0.04,0.02c-0.33-0.21-0.4-0.37-0.52-0.57c-0.1-0.19-0.16-0.38-0.2-0.57c-0.08-0.38-0.09-0.74-0.06-1.08
									c0.06-0.69,0.23-1.34,0.45-1.96c0.44-1.24,1.08-2.37,1.8-3.43c-0.17,0.63-0.4,1.22-0.56,1.83c-0.19,0.6-0.35,1.21-0.49,1.81
									c-0.13,0.6-0.25,1.21-0.25,1.79c0,0.29,0.01,0.57,0.07,0.82c0.03,0.12,0.07,0.24,0.12,0.33c0.03,0.08,0.16,0.18,0.09,0.14
									l0.04,0.02l0.37,0.18c0.12,0.08,0.25,0.11,0.37,0.13c0.12,0.02,0.25,0.08,0.36,0.05c0.12-0.02,0.24,0.02,0.35-0.04
									c0.11-0.05,0.24-0.05,0.35-0.13c0.11-0.08,0.23-0.13,0.33-0.22c0.21-0.18,0.41-0.39,0.59-0.63
									c0.36-0.49,0.66-1.04,0.93-1.61C401.59,45.05,401.81,44.45,402.04,43.83z"/>
								<path id="XMLID_146_" d="M388.71,36.25c0,0-0.03,0.24-0.13,0.64c-0.11,0.4-0.26,0.98-0.52,1.65
									c-0.25,0.67-0.59,1.44-1.08,2.22c-0.24,0.39-0.53,0.78-0.9,1.15c-0.39,0.32-0.88,0.77-1.71,0.63
									c-0.59-0.23-0.66-0.68-0.72-0.95c-0.05-0.3-0.05-0.56-0.03-0.81c0.03-0.51,0.15-0.96,0.25-1.41
									c0.22-0.88,0.52-1.66,0.79-2.32c0.56-1.31,1.05-2.13,1.05-2.13s-0.05,0.23-0.13,0.64c-0.09,0.4-0.22,0.98-0.37,1.67
									c-0.15,0.69-0.33,1.48-0.48,2.33c-0.07,0.42-0.13,0.86-0.15,1.28c-0.01,0.21,0,0.41,0.03,0.58
									c0.01,0.18,0.14,0.23,0.02,0.17c0.11,0.05,0.5-0.1,0.79-0.37c0.29-0.29,0.59-0.59,0.83-0.94c0.51-0.68,0.93-1.37,1.29-1.97
									C388.27,37.09,388.71,36.25,388.71,36.25z"/>
							</g>
							<path id="XMLID_144_" class="st59" d="M405.21,42.83c0,0-0.1-0.11-0.27-0.26c-0.17-0.15-0.41-0.35-0.67-0.55
								c-0.28-0.19-0.57-0.4-0.89-0.6c-0.16-0.09-0.32-0.19-0.49-0.29c-0.18-0.08-0.33-0.2-0.52-0.28
								c-0.18-0.09-0.35-0.19-0.54-0.28c-0.19-0.08-0.36-0.19-0.55-0.27c-0.36-0.19-0.72-0.36-1.04-0.54
								c-0.32-0.18-0.6-0.32-0.8-0.46c-0.2-0.13-0.31-0.23-0.31-0.23s0.12-0.07,0.34-0.17c0.22-0.09,0.54-0.23,0.93-0.28
								c0.4-0.07,0.86-0.1,1.36-0.03c0.5,0.06,1.03,0.22,1.53,0.48c0.5,0.25,0.95,0.63,1.29,1.04c0.34,0.42,0.56,0.89,0.67,1.3
								c0.11,0.42,0.1,0.78,0.06,1.02C405.28,42.7,405.21,42.83,405.21,42.83z"/>
							<path id="XMLID_148_" class="st59" d="M390.13,35.25c0,0-0.44-0.26-0.93-0.47c-0.26-0.1-0.51-0.2-0.78-0.28
								c-0.12-0.05-0.27-0.06-0.39-0.11c-0.14-0.02-0.26-0.07-0.41-0.09c-0.14-0.03-0.27-0.07-0.43-0.09
								c-0.15-0.02-0.29-0.08-0.45-0.09c-0.3-0.07-0.61-0.12-0.9-0.2c-0.29-0.08-0.55-0.13-0.74-0.2c-0.19-0.07-0.31-0.12-0.31-0.12
								s0.07-0.11,0.2-0.26c0.14-0.15,0.34-0.38,0.63-0.54c0.28-0.19,0.64-0.36,1.07-0.44c0.21-0.06,0.44-0.06,0.67-0.07
								c0.23-0.02,0.48,0.04,0.72,0.08c0.48,0.11,0.95,0.35,1.29,0.67c0.36,0.31,0.59,0.69,0.7,1.04c0.13,0.34,0.13,0.65,0.12,0.86
								C390.18,35.13,390.13,35.25,390.13,35.25z"/>
						</g>
						<g id="XMLID_373_">
							
								<ellipse id="XMLID_357_" transform="matrix(0.218 -0.9759 0.9759 0.218 256.1012 408.5156)" class="st57" cx="382.97" cy="44.45" rx="0.75" ry="1.17"/>
							
								<ellipse id="XMLID_360_" transform="matrix(0.218 -0.9759 0.9759 0.218 261.6335 427.9202)" class="st57" cx="397.85" cy="50.7" rx="0.75" ry="1.17"/>
						</g>
					</g>
				</g>
			</g>
		</g>
		<g id="XMLID_402_">
			<g id="XMLID_367_" class="st70">
				<path id="XMLID_394_" class="st71" d="M82.84,96.47c0,0,7.85-0.36,10.22-13.14c0,0-0.18,11.31,6.39,12.04
					c0,0-8.03-0.36-6.93,16.79C92.51,112.17,91.05,97.02,82.84,96.47z"/>
				<path id="XMLID_393_" class="st71" d="M101.42,111.25c0,0,3.75-0.17,4.89-6.28c0,0-0.09,5.41,3.05,5.76c0,0-3.84-0.17-3.32,8.03
					C106.05,118.75,105.35,111.51,101.42,111.25z"/>
			</g>
			<g id="XMLID_403_" class="st70">
				<path id="XMLID_405_" class="st71" d="M651.08,65.89c0,0,7.85-0.36,10.22-13.14c0,0-0.18,11.31,6.39,12.04
					c0,0-8.03-0.36-6.93,16.79C660.76,81.58,659.3,66.44,651.08,65.89z"/>
				<path id="XMLID_404_" class="st71" d="M669.67,80.67c0,0,3.75-0.17,4.89-6.28c0,0-0.09,5.41,3.05,5.76c0,0-3.84-0.17-3.32,8.03
					C674.29,88.17,673.59,80.93,669.67,80.67z"/>
			</g>
			<g id="XMLID_406_" class="st70">
				<path id="XMLID_408_" class="st71" d="M691.08,449.89c0,0,7.85-0.36,10.22-13.14c0,0-0.18,11.31,6.39,12.04
					c0,0-8.03-0.36-6.93,16.79C700.76,465.58,699.3,450.44,691.08,449.89z"/>
				<path id="XMLID_407_" class="st71" d="M709.67,464.67c0,0,3.75-0.17,4.89-6.28c0,0-0.09,5.41,3.05,5.76c0,0-3.84-0.17-3.32,8.03
					C714.29,472.17,713.59,464.93,709.67,464.67z"/>
			</g>
			<g id="XMLID_409_" class="st70">
				<path id="XMLID_411_" class="st71" d="M34.08,458.89c0,0,7.85-0.36,10.22-13.14c0,0-0.18,11.31,6.39,12.04
					c0,0-8.03-0.36-6.93,16.79C43.76,474.58,42.3,459.44,34.08,458.89z"/>
				<path id="XMLID_410_" class="st71" d="M52.67,473.67c0,0,3.75-0.17,4.89-6.28c0,0-0.09,5.41,3.05,5.76c0,0-3.84-0.17-3.32,8.03
					C57.29,481.17,56.59,473.93,52.67,473.67z"/>
			</g>
		</g>
	</g>
</g>
<g id="DESIGNED_BY_FREEPIK" class="st0">
</g>
</svg>
