<?xml version="1.0" encoding="utf-8"?>
<!-- Generator: Adobe Illustrator 27.9.0, SVG Export Plug-In . SVG Version: 6.00 Build 0)  -->
<svg version="1.1" xmlns="http://www.w3.org/2000/svg" xmlns:xlink="http://www.w3.org/1999/xlink" x="0px" y="0px"
	 viewBox="0 0 500 500" style="enable-background:new 0 0 500 500;" xml:space="preserve">
<style type="text/css">
	.st0{display:none;}
	.st1{fill:#E2F3FC;}
	.st2{fill:#FFFFFF;}
	.st3{fill:#B7DAEA;}
	.st4{fill:#B3DDC8;}
	.st5{fill:#92C8AC;}
	.st6{fill:#75C2E8;}
	.st7{fill:#55A2C0;}
	.st8{fill:#F8B6A9;}
	.st9{fill:#C4E5E1;}
	.st10{fill:#B0D4E4;}
	.st11{fill:#92C3DC;}
	.st12{fill:#FFCF85;}
	.st13{fill:#FFF8EE;}
	.st14{fill:#F6E0A9;}
	.st15{fill:#506F8E;}
	.st16{fill:#4A8CCA;}
	.st17{fill:#88CBF0;}
	.st18{fill:#30749E;}
	.st19{fill:#CAEBFB;}
	.st20{fill:#345799;}
	.st21{fill:#454599;}
	.st22{fill:#484FA1;}
	.st23{fill:#3D437D;}
	.st24{fill:#FCBC5F;}
	.st25{fill:#F8A71A;}
	.st26{fill:#6363A8;}
	.st27{fill:#444A86;}
	.st28{fill:#FAAF53;}
	.st29{fill:#494C89;}
	.st30{fill:#E28CBA;}
	.st31{fill:#9C7DB8;}
	.st32{fill:#8162A9;}
	.st33{fill:#F9C180;}
	.st34{fill:#667BAE;}
	.st35{fill:#EF658D;}
	.st36{fill:#324A5B;}
	.st37{fill:#4C86AA;}
	.st38{fill:#58BBA9;}
	.st39{fill:#BFE3DB;}
	.st40{fill:#E15F5F;}
	.st41{fill:#C4403F;}
	.st42{fill:#F5B619;}
	.st43{fill:#D7C9C9;}
	.st44{fill:#F49F62;}
	.st45{fill:#76C6EE;}
	.st46{fill:#49B0DE;}
	.st47{fill:#EF4F4E;}
	.st48{fill:#CFB8D9;}
	.st49{fill:#8567A5;}
	.st50{fill:#EEC34B;}
	.st51{opacity:0.58;fill:#667BAE;}
	.st52{fill:#36639B;}
	.st53{fill:#627DA4;}
	.st54{fill:#C1BEBC;}
	.st55{fill:#B48039;}
</style>
<g id="BACKGROUND" class="st0">
</g>
<g id="OBJECTS">
	<path class="st1" d="M93.15,391.24h355.49c11.41-9.96,19.95-23.4,23.84-38.25c5.81-22.15,1.16-46.93-12.26-65.28
		c-12.35-16.89-32.2-29.91-35.43-50.75c-2.32-14.97,4.86-29.61,7.02-44.6c4.66-32.44-16.18-65.28-45.04-79.47
		c-28.86-14.19-63.59-11.78-93.26,0.53c-16.79,6.97-33.1,17.09-51.21,17.48c-31.21,0.67-55.63-27.07-85.34-36.86
		c-23.92-7.88-51.44-3.13-71.52,12.34c-20.08,15.47-32.18,41.24-31.43,66.97c0.49,17.06,6.16,34.73,0.38,50.74
		c-3.54,9.81-10.96,17.55-16.1,26.59c-13.62,23.95-9.7,55.09,3.08,79.53C53.85,354.09,73.6,372.95,93.15,391.24z"/>
	<path class="st2" d="M62.13,155.14h106.29c-7.34-1.08-15.12-3.51-22.46-4.59c4.96-7.76-0.69-19.85-9.82-21.01
		c-9.14-1.16-17.64,9.12-14.78,17.87c-1.51-2.81-4.87-4.5-8.02-4.03c-3.15,0.47-5.88,3.06-6.51,6.18
		c-1.4-9.97-3.02-20.47-9.33-28.32c-6.31-7.85-19-11.49-26.57-4.85c-4.68,4.1-6.13,10.96-5.22,17.11c0.9,6.15,3.81,11.81,6.67,17.33
		C68.96,152.26,65.83,155.14,62.13,155.14z"/>
	<path class="st2" d="M213.85,210.48h106.29c-7.34-1.08-15.12-3.51-22.46-4.59c4.96-7.76-0.69-19.85-9.82-21.01
		c-9.14-1.16-17.64,9.12-14.78,17.87c-1.51-2.81-4.87-4.5-8.02-4.03c-3.15,0.47-5.88,3.06-6.51,6.18
		c-1.4-9.97-3.02-20.47-9.33-28.32c-6.31-7.85-19-11.49-26.57-4.85c-4.68,4.1-6.13,10.96-5.22,17.11c0.9,6.15,3.81,11.81,6.67,17.33
		C220.69,207.6,217.56,210.48,213.85,210.48z"/>
	<path class="st2" d="M97.69,253.27h106.29c-7.34-1.08-15.12-3.51-22.46-4.59c4.96-7.76-0.69-19.85-9.82-21.01
		c-9.14-1.17-17.64,9.12-14.78,17.87c-1.51-2.81-4.87-4.5-8.02-4.03c-3.15,0.47-5.88,3.06-6.51,6.18
		c-1.4-9.97-3.02-20.47-9.33-28.32c-6.31-7.85-19-11.49-26.57-4.85c-4.68,4.1-6.13,10.96-5.22,17.11c0.9,6.15,3.81,11.81,6.67,17.33
		C104.52,250.39,101.39,253.27,97.69,253.27z"/>
	<path class="st2" d="M369.56,177.7h106.29c-7.34-1.08-15.12-3.51-22.46-4.59c4.96-7.76-0.69-19.85-9.82-21.01
		c-9.14-1.16-17.64,9.12-14.78,17.87c-1.51-2.81-4.87-4.5-8.02-4.03c-3.15,0.47-5.88,3.06-6.51,6.18
		c-1.4-9.97-3.02-20.47-9.33-28.32c-6.31-7.85-19-11.49-26.57-4.85c-4.68,4.1-6.13,10.96-5.22,17.11c0.9,6.15,3.81,11.81,6.67,17.33
		C376.39,174.83,373.26,177.7,369.56,177.7z"/>
	<path class="st3" d="M484.68,396.08c0,15.74-105.07,28.49-234.68,28.49c-129.61,0-234.68-12.76-234.68-28.49
		c0-15.74,105.07-28.49,234.68-28.49C379.61,367.59,484.68,380.34,484.68,396.08z"/>
	<g>
		<g>
			<path class="st4" d="M274.95,224.44c5.38-10.35,13.42-19.59,16-30.97c2.88-12.73-0.65-28.54,9.26-37.03
				c6.36-5.45,15.71-5.22,23.5-8.31c8.51-3.37,17.31-10.93,25.52-6.88c6.15,3.03,7.77,11.47,5.63,17.98
				c-2.14,6.51-6.99,11.7-11.17,17.13c-4.18,5.43-7.95,11.87-7.29,18.69c0.79,8.24,7.88,16.3,4.49,23.85
				c-3.65,8.12-16.8,8.5-19.95,16.83c-2.72,7.19,4.09,14.83,3.16,22.46c-0.86,6.99-7.69,11.43-13.82,14.89
				c-12.14,6.83-32.63,26.53-39.6,6.5C264.54,261.89,266.37,240.95,274.95,224.44z"/>
			<g>
				<path class="st5" d="M342.42,147.89c-25.59,30.15-44.23,66.02-54.19,104.3c-2.79,10.71-4.87,21.59-6.29,32.57
					c-0.06,0.47,0.68,0.47,0.74,0c5.01-38.76,18.77-76.25,39.99-109.07c6.15-9.52,12.94-18.62,20.27-27.26
					C343.25,148.05,342.73,147.52,342.42,147.89L342.42,147.89z"/>
			</g>
			<g>
				<path class="st5" d="M324.03,153.47c1.33,4.26,2.66,8.53,3.99,12.79c0.14,0.46,0.86,0.26,0.72-0.2
					c-1.33-4.26-2.66-8.53-3.99-12.79C324.61,152.81,323.89,153.01,324.03,153.47L324.03,153.47z"/>
			</g>
			<g>
				<path class="st5" d="M331.34,185.39c-6.17,0.36-12.13,1.7-17.86,4.05c-0.44,0.18-0.25,0.9,0.2,0.72
					c5.67-2.32,11.54-3.67,17.66-4.02C331.82,186.1,331.82,185.36,331.34,185.39L331.34,185.39z"/>
			</g>
			<g>
				<path class="st5" d="M302.03,168.12c2.06,9.82,4.4,19.58,7.02,29.26c0.12,0.46,0.84,0.27,0.72-0.2
					c-2.61-9.69-4.95-19.44-7.02-29.26C302.65,167.45,301.94,167.65,302.03,168.12L302.03,168.12z"/>
			</g>
			<g>
				<path class="st5" d="M330.42,216.25c-9.96-0.01-19.92-0.02-29.87-0.03c-0.48,0-0.48,0.74,0,0.74
					c9.96,0.01,19.92,0.02,29.87,0.03C330.9,216.99,330.9,216.25,330.42,216.25L330.42,216.25z"/>
			</g>
			<g>
				<path class="st5" d="M288.92,208.05c1.75,8.43,3.5,16.86,5.25,25.29c0.1,0.47,0.82,0.27,0.72-0.2
					c-1.75-8.43-3.5-16.86-5.25-25.29C289.54,207.38,288.82,207.58,288.92,208.05L288.92,208.05z"/>
			</g>
			<g>
				<path class="st5" d="M313.69,233.57c-7.38,2.78-14.76,5.55-22.14,8.33c-0.44,0.17-0.25,0.89,0.2,0.72
					c7.38-2.78,14.76-5.55,22.14-8.33C314.34,234.12,314.14,233.4,313.69,233.57L313.69,233.57z"/>
			</g>
		</g>
		<g>
			<path class="st6" d="M261.91,273.46c-0.56-24.46-12.44-48.43-31.56-63.7c-8.48-6.77-18.29-11.92-25.87-19.69
				c-9.3-9.53-14.62-22.38-23.94-31.9c-9.31-9.52-25.95-14.63-35.54-5.39c8.87-3.11,18.78,9.07,21.67,18.02
				c2.89,8.95,1.27,18.62,0.89,28.02c-0.38,9.39,0.97,19.83,8.03,26.05c6.79,5.98,16.67,6.24,25.66,7.16
				c9,0.91,19.18,3.75,22.92,11.98c3.98,8.78-1.43,19.16,0.51,28.6c4.5,21.95,42.41,23.2,46.36,45.25
				C267.71,303.35,262.26,288.34,261.91,273.46z"/>
			<g>
				<path class="st7" d="M165.29,152.41c5.94,10.31,11.89,20.63,18.61,30.45c6.55,9.56,13.95,18.33,22.1,26.57
					c8.45,8.55,17.33,16.71,25.1,25.91c7.32,8.67,13.58,18.22,18.67,28.36c5.77,11.5,9.96,23.73,12.54,36.33
					c0.1,0.47,0.81,0.27,0.72-0.2c-4.44-21.7-13.75-42.29-27.25-59.86c-14.61-19.02-34.04-33.57-48.13-53.07
					c-8.03-11.11-14.88-23-21.72-34.86C165.7,151.62,165.06,151.99,165.29,152.41L165.29,152.41z"/>
			</g>
			<g>
				<path class="st7" d="M172.84,186.74c7.6,3.72,15.19,7.45,22.79,11.17c0.43,0.21,0.81-0.43,0.38-0.64
					c-7.6-3.72-15.19-7.45-22.79-11.17C172.78,185.88,172.4,186.52,172.84,186.74L172.84,186.74z"/>
			</g>
			<g>
				<path class="st7" d="M204.8,192.38c0.77,6.12,1.54,12.24,2.31,18.36c0.06,0.47,0.8,0.47,0.74,0
					c-0.77-6.12-1.54-12.24-2.31-18.36C205.48,191.91,204.74,191.91,204.8,192.38L204.8,192.38z"/>
			</g>
			<g>
				<path class="st7" d="M186.04,218.9c11.07,1.33,22.13,2.67,33.2,4c0.47,0.06,0.47-0.69,0-0.74c-11.07-1.33-22.13-2.67-33.2-4
					C185.57,218.09,185.57,218.84,186.04,218.9L186.04,218.9z"/>
			</g>
			<g>
				<path class="st7" d="M231.11,215.72c-0.35,6.05-0.7,12.11-1.05,18.16c-0.03,0.48,0.72,0.48,0.74,0
					c0.35-6.05,0.7-12.11,1.05-18.16C231.88,215.25,231.13,215.25,231.11,215.72L231.11,215.72z"/>
			</g>
			<g>
				<path class="st7" d="M231.81,259.81c6.2,1.38,12.39,2.77,18.59,4.15c0.47,0.1,0.67-0.61,0.2-0.72
					c-6.2-1.38-12.39-2.77-18.59-4.15C231.54,258.99,231.34,259.71,231.81,259.81L231.81,259.81z"/>
			</g>
		</g>
		<g>
			<g>
				<path class="st8" d="M167.43,211.74c20.8,25.87,37.75,54.66,50.29,85.39c0.54,1.31,2.56,0.46,2.03-0.86
					c-12.6-30.9-29.68-59.89-50.59-85.9C168.27,209.27,166.54,210.63,167.43,211.74L167.43,211.74z"/>
			</g>
			<path class="st8" d="M170.4,202.5c4.28,5.31,2.45,13.89,2.45,13.89s-8.77-0.03-13.05-5.34c-4.28-5.31-2.45-13.89-2.45-13.89
				S166.11,197.19,170.4,202.5z"/>
			<path class="st8" d="M189.69,215.89c-1.59,6.63-9.5,10.42-9.5,10.42s-5.33-6.97-3.74-13.6s9.5-10.42,9.5-10.42
				S191.28,209.25,189.69,215.89z"/>
			<path class="st8" d="M203.08,235.33c-1.59,6.63-9.5,10.42-9.5,10.42s-5.33-6.97-3.74-13.6s9.5-10.42,9.5-10.42
				S204.67,228.69,203.08,235.33z"/>
			<path class="st8" d="M216.37,258.74c-2.15,6.47-10.36,9.57-10.36,9.57s-4.72-7.4-2.57-13.87c2.15-6.47,10.36-9.57,10.36-9.57
				S218.52,252.26,216.37,258.74z"/>
			<path class="st8" d="M173.42,225.32c6.79,0.7,11.58,8.05,11.58,8.05s-6.2,6.2-12.99,5.5c-6.79-0.7-11.58-8.05-11.58-8.05
				S166.63,224.62,173.42,225.32z"/>
			<path class="st8" d="M185.93,245.13c6.79,0.7,11.58,8.05,11.58,8.05s-6.2,6.2-12.99,5.5c-6.79-0.7-11.58-8.05-11.58-8.05
				S179.15,244.43,185.93,245.13z"/>
			<path class="st8" d="M197.53,268.38c6.82-0.13,12.48,6.58,12.48,6.58s-5.4,6.91-12.22,7.04c-6.82,0.13-12.48-6.58-12.48-6.58
				S190.71,268.51,197.53,268.38z"/>
		</g>
		<g>
			<g>
				<path class="st9" d="M455.81,247.67c-20.8,25.87-37.75,54.66-50.29,85.39c-0.54,1.31-2.56,0.46-2.03-0.86
					c12.6-30.9,29.68-59.89,50.59-85.9C454.97,245.2,456.7,246.56,455.81,247.67L455.81,247.67z"/>
			</g>
			<path class="st9" d="M452.84,238.42c-4.28,5.31-2.45,13.89-2.45,13.89s8.77-0.03,13.05-5.34c4.28-5.31,2.45-13.89,2.45-13.89
				S457.13,233.11,452.84,238.42z"/>
			<path class="st9" d="M433.55,251.81c1.59,6.63,9.5,10.42,9.5,10.42s5.33-6.97,3.74-13.6c-1.59-6.63-9.5-10.42-9.5-10.42
				S431.96,245.18,433.55,251.81z"/>
			<path class="st9" d="M420.17,271.25c1.59,6.63,9.5,10.42,9.5,10.42s5.33-6.97,3.74-13.6c-1.59-6.63-9.5-10.42-9.5-10.42
				S418.57,264.62,420.17,271.25z"/>
			<path class="st9" d="M406.87,294.66c2.15,6.47,10.36,9.57,10.36,9.57s4.72-7.4,2.57-13.87c-2.15-6.47-10.36-9.57-10.36-9.57
				S404.72,288.19,406.87,294.66z"/>
			<path class="st9" d="M449.82,261.24c-6.79,0.7-11.58,8.05-11.58,8.05s6.2,6.2,12.99,5.5c6.79-0.7,11.58-8.05,11.58-8.05
				S456.61,260.54,449.82,261.24z"/>
			<path class="st9" d="M437.31,281.05c-6.79,0.7-11.58,8.05-11.58,8.05s6.2,6.2,12.99,5.5c6.79-0.7,11.58-8.05,11.58-8.05
				S444.1,280.35,437.31,281.05z"/>
			<path class="st9" d="M425.71,304.3c-6.82-0.13-12.48,6.58-12.48,6.58s5.4,6.91,12.22,7.04c6.82,0.13,12.48-6.57,12.48-6.57
				S432.53,304.43,425.71,304.3z"/>
		</g>
		<g>
			<g>
				<path class="st10" d="M71.61,229.68C82.6,261,98.11,290.6,117.6,317.47c0.83,1.15-0.97,2.42-1.8,1.27
					c-19.59-27.02-35.21-56.82-46.26-88.31C69.07,229.09,71.14,228.34,71.61,229.68L71.61,229.68z"/>
			</g>
			<path class="st10" d="M62.19,227.32c2.25,6.44,10.5,9.41,10.5,9.41s4.6-7.47,2.35-13.91c-2.25-6.44-10.5-9.42-10.5-9.42
				S59.94,220.88,62.19,227.32z"/>
			<path class="st10" d="M63.38,250.78c6.47,2.15,13.87-2.57,13.87-2.57s-3.1-8.21-9.58-10.35c-6.47-2.15-13.87,2.57-13.87,2.57
				S56.91,248.63,63.38,250.78z"/>
			<path class="st10" d="M72.83,272.41c6.47,2.15,13.87-2.57,13.87-2.57s-3.1-8.21-9.58-10.35c-6.47-2.15-13.87,2.57-13.87,2.57
				S66.35,270.26,72.83,272.41z"/>
			<path class="st10" d="M85.69,296.05c6.63,1.59,13.6-3.75,13.6-3.75s-3.79-7.91-10.43-9.5c-6.63-1.59-13.6,3.75-13.6,3.75
				S79.06,294.46,85.69,296.05z"/>
			<path class="st10" d="M79.98,241.93c-2.98,6.13,0.72,14.09,0.72,14.09s8.54-1.99,11.53-8.13c2.98-6.13-0.72-14.09-0.72-14.09
				S82.96,235.8,79.98,241.93z"/>
			<path class="st10" d="M90.2,263.02c-2.98,6.13,0.72,14.09,0.72,14.09s8.54-2,11.53-8.13c2.98-6.13-0.72-14.09-0.72-14.09
				S93.19,256.88,90.2,263.02z"/>
			<path class="st10" d="M103.82,285.14c-3.71,5.73-1,14.07-1,14.07s8.72-0.94,12.43-6.66c3.71-5.72,1-14.07,1-14.07
				S107.53,279.42,103.82,285.14z"/>
		</g>
		<g>
			<g>
				<path class="st9" d="M256.34,170.92c-1.83,33.14,1.16,66.42,8.88,98.7c0.33,1.38-1.82,1.86-2.15,0.48
					c-7.76-32.46-10.78-65.97-8.93-99.29C254.22,169.41,256.42,169.5,256.34,170.92L256.34,170.92z"/>
			</g>
			<path class="st9" d="M248.54,165.14c-0.39,6.81,6.1,12.72,6.1,12.72s7.11-5.14,7.5-11.95c0.39-6.81-6.1-12.72-6.1-12.72
				S248.93,158.33,248.54,165.14z"/>
			<path class="st9" d="M240.66,187.26c5.16,4.46,13.8,2.93,13.8,2.93s0.27-8.77-4.89-13.23c-5.16-4.46-13.8-2.93-13.8-2.93
				S235.5,182.8,240.66,187.26z"/>
			<path class="st9" d="M241.11,210.86c5.16,4.46,13.8,2.93,13.8,2.93s0.27-8.77-4.89-13.23c-5.16-4.46-13.8-2.93-13.8-2.93
				S235.95,206.4,241.11,210.86z"/>
			<path class="st9" d="M243.95,237.63c5.52,4.01,14,1.75,14,1.75s-0.47-8.76-6-12.77c-5.52-4.01-14-1.75-14-1.75
				S238.42,233.63,243.95,237.63z"/>
			<path class="st9" d="M259.38,185.45c-5.1,4.53-4.72,13.29-4.72,13.29s8.66,1.43,13.76-3.1c5.1-4.53,4.72-13.29,4.72-13.29
				S264.49,180.92,259.38,185.45z"/>
			<path class="st9" d="M260.76,208.84c-5.1,4.53-4.72,13.29-4.72,13.29s8.66,1.43,13.76-3.1c5.1-4.53,4.72-13.29,4.72-13.29
				S265.86,204.31,260.76,208.84z"/>
			<path class="st9" d="M264.87,234.49c-5.62,3.87-6.31,12.61-6.31,12.61s8.42,2.47,14.04-1.4c5.62-3.87,6.31-12.61,6.31-12.61
				S270.49,230.62,264.87,234.49z"/>
		</g>
		<g>
			<g>
				<path class="st11" d="M391.7,194.64c-5.15,35.45-5.13,71.53,0.07,106.97c0.22,1.51-2.13,1.83-2.36,0.31
					c-5.23-35.64-5.25-71.96-0.07-107.61C389.56,192.8,391.92,193.12,391.7,194.64L391.7,194.64z"/>
			</g>
			<path class="st11" d="M383.87,187.67c-1.07,7.29,5.34,14.26,5.34,14.26s8.14-4.84,9.21-12.12c1.07-7.29-5.34-14.26-5.34-14.26
				S384.94,180.38,383.87,187.67z"/>
			<path class="st11" d="M373.28,210.7c5.12,5.29,14.55,4.48,14.55,4.48s1.14-9.4-3.98-14.7c-5.12-5.29-14.55-4.48-14.55-4.48
				S368.16,205.4,373.28,210.7z"/>
			<path class="st11" d="M371.49,236.11c5.12,5.29,14.55,4.48,14.55,4.48s1.14-9.4-3.98-14.69c-5.12-5.29-14.55-4.48-14.55-4.48
				S366.37,230.82,371.49,236.11z"/>
			<path class="st11" d="M371.96,265.17c5.55,4.84,14.88,3.22,14.88,3.22s0.33-9.46-5.22-14.3c-5.55-4.84-14.88-3.22-14.88-3.22
				S366.41,260.33,371.96,265.17z"/>
			<path class="st11" d="M393.58,210.54c-5.92,4.38-6.36,13.83-6.36,13.83s9.17,2.37,15.09-2.01c5.92-4.38,6.36-13.83,6.36-13.83
				S399.5,206.17,393.58,210.54z"/>
			<path class="st11" d="M392.81,235.82c-5.92,4.38-6.36,13.83-6.36,13.83s9.17,2.36,15.09-2.01c5.92-4.38,6.36-13.83,6.36-13.83
				S398.73,231.45,392.81,235.82z"/>
			<path class="st11" d="M394.77,263.8c-6.41,3.62-8,12.96-8,12.96s8.81,3.47,15.22-0.15c6.41-3.62,8-12.96,8-12.96
				S401.18,260.18,394.77,263.8z"/>
		</g>
		<g>
			<path class="st12" d="M204.24,279.98c10.8,26.88-4.93,58.51-4.93,58.51s-33.25-11.94-44.05-38.82
				c-10.8-26.88,4.93-58.51,4.93-58.51S193.44,253.1,204.24,279.98z"/>
			<g>
				<path class="st13" d="M161.98,245.07c12.13,30.18,24.26,60.35,36.39,90.53c0.18,0.44,0.87,0.17,0.69-0.28
					c-12.13-30.18-24.26-60.35-36.39-90.53C162.49,244.34,161.8,244.62,161.98,245.07L161.98,245.07z"/>
			</g>
			<g>
				<path class="st13" d="M157.39,258.36c4.07,1.75,8.14,3.5,12.21,5.25c0.44,0.19,0.73-0.5,0.29-0.68
					c-4.07-1.75-8.14-3.5-12.21-5.25C157.24,257.49,156.95,258.17,157.39,258.36L157.39,258.36z"/>
			</g>
			<g>
				<path class="st13" d="M179.54,258.61c-1.98,4.63-3.95,9.26-5.93,13.89c-0.19,0.44,0.5,0.73,0.68,0.29
					c1.98-4.63,3.95-9.26,5.93-13.89C180.41,258.46,179.73,258.17,179.54,258.61L179.54,258.61z"/>
			</g>
			<g>
				<path class="st13" d="M159.28,281.65c6.95,2.95,13.9,5.9,20.86,8.85c0.44,0.19,0.73-0.5,0.29-0.68
					c-6.95-2.95-13.9-5.9-20.86-8.85C159.13,280.78,158.84,281.47,159.28,281.65L159.28,281.65z"/>
			</g>
			<g>
				<path class="st13" d="M194.88,281.91c-3.1,7.22-6.2,14.45-9.3,21.67c0.23,0.1,0.46,0.19,0.68,0.29
					c0.39-0.99,0.78-1.98,1.17-2.97c0.18-0.45-0.51-0.74-0.68-0.29c-0.39,0.99-0.78,1.98-1.17,2.97c-0.17,0.44,0.5,0.73,0.68,0.29
					c3.1-7.22,6.2-14.45,9.3-21.67C195.75,281.76,195.07,281.47,194.88,281.91L194.88,281.91z"/>
			</g>
			<g>
				<path class="st13" d="M168.65,308.94c7.44,3.21,14.89,6.41,22.33,9.62c0.44,0.19,0.73-0.5,0.29-0.68
					c-7.44-3.21-14.89-6.41-22.33-9.62C168.51,308.07,168.21,308.75,168.65,308.94L168.65,308.94z"/>
			</g>
		</g>
		<g>
			<path class="st8" d="M428.71,293.55c-9.44,27.38-42.05,40.98-42.05,40.98s-17.3-30.8-7.86-58.19
				c9.44-27.38,42.06-40.98,42.06-40.98S438.16,266.17,428.71,293.55z"/>
			<g>
				<path class="st13" d="M419.64,239.49c-10.6,30.75-21.21,61.49-31.81,92.24c-0.16,0.45,0.55,0.7,0.7,0.24
					c10.6-30.75,21.21-61.49,31.81-92.24C420.5,239.28,419.8,239.03,419.64,239.49L419.64,239.49z"/>
			</g>
			<g>
				<path class="st13" d="M407.47,246.53c1.93,3.99,3.86,7.98,5.79,11.96c0.21,0.43,0.88,0.11,0.67-0.33
					c-1.93-3.99-3.86-7.98-5.79-11.96C407.93,245.77,407.26,246.1,407.47,246.53L407.47,246.53z"/>
			</g>
			<g>
				<path class="st13" d="M424.04,261.23c-4.53,2.21-9.05,4.41-13.58,6.62c-0.43,0.21-0.11,0.88,0.33,0.67
					c4.53-2.21,9.05-4.41,13.58-6.62C424.8,261.69,424.47,261.02,424.04,261.23L424.04,261.23z"/>
			</g>
			<g>
				<path class="st13" d="M393.64,265.36c3.32,6.78,6.64,13.57,9.96,20.35c0.21,0.43,0.88,0.11,0.67-0.33
					c-3.32-6.78-6.64-13.57-9.96-20.35C394.1,264.61,393.43,264.93,393.64,265.36L393.64,265.36z"/>
			</g>
			<g>
				<path class="st13" d="M420.37,288.88c-7.07,3.43-14.15,6.85-21.22,10.28c0.11,0.22,0.22,0.45,0.33,0.67
					c0.94-0.49,1.89-0.99,2.83-1.48c0.42-0.22,0.1-0.89-0.33-0.67c-0.94,0.49-1.89,0.99-2.83,1.48c-0.42,0.22-0.11,0.88,0.33,0.67
					c7.07-3.43,14.15-6.86,21.22-10.28C421.13,289.34,420.81,288.67,420.37,288.88L420.37,288.88z"/>
			</g>
			<g>
				<path class="st13" d="M382.85,292.13c3.52,7.3,7.05,14.6,10.57,21.9c0.21,0.43,0.88,0.11,0.67-0.33
					c-3.52-7.3-7.05-14.6-10.57-21.9C383.31,291.37,382.64,291.69,382.85,292.13L382.85,292.13z"/>
			</g>
		</g>
		<g>
			<path class="st14" d="M379.38,237.83c16.19,24.02,7.42,58.25,7.42,58.25s-35.01-4.72-51.2-28.75
				c-16.19-24.02-7.42-58.25-7.42-58.25S363.19,213.8,379.38,237.83z"/>
			<g>
				<path class="st13" d="M330.75,212.53c18.17,26.97,36.35,53.94,54.52,80.92c0.27,0.4,0.88-0.02,0.62-0.42
					c-18.17-26.97-36.35-53.94-54.52-80.92C331.09,211.72,330.48,212.13,330.75,212.53L330.75,212.53z"/>
			</g>
			<g>
				<path class="st13" d="M329.04,226.49c4.35,0.86,8.69,1.72,13.04,2.57c0.47,0.09,0.61-0.64,0.14-0.73
					c-4.35-0.86-8.69-1.72-13.04-2.58C328.71,225.67,328.57,226.4,329.04,226.49L329.04,226.49z"/>
			</g>
			<g>
				<path class="st13" d="M350.75,222.1c-0.96,4.94-1.93,9.88-2.89,14.83c-0.09,0.47,0.64,0.61,0.73,0.14
					c0.96-4.94,1.93-9.88,2.89-14.83C351.58,221.78,350.84,221.63,350.75,222.1L350.75,222.1z"/>
			</g>
			<g>
				<path class="st13" d="M335.76,248.87c7.42,1.43,14.83,2.86,22.25,4.29c0.47,0.09,0.61-0.64,0.14-0.73
					c-7.42-1.43-14.83-2.86-22.25-4.29C335.43,248.05,335.29,248.78,335.76,248.87L335.76,248.87z"/>
			</g>
			<g>
				<path class="st13" d="M370.63,241.67c-1.52,7.71-3.04,15.42-4.56,23.14c0.24,0.05,0.49,0.09,0.73,0.14
					c0.17-1.05,0.35-2.1,0.52-3.15c0.08-0.47-0.65-0.62-0.73-0.14c-0.17,1.05-0.35,2.1-0.52,3.15c-0.08,0.47,0.64,0.61,0.73,0.14
					c1.52-7.71,3.04-15.42,4.56-23.14C371.45,241.35,370.72,241.2,370.63,241.67L370.63,241.67z"/>
			</g>
			<g>
				<path class="st13" d="M350.64,273.6c7.95,1.58,15.9,3.16,23.85,4.74c0.47,0.09,0.61-0.64,0.14-0.73
					c-7.95-1.58-15.9-3.16-23.85-4.74C350.31,272.77,350.17,273.5,350.64,273.6L350.64,273.6z"/>
			</g>
		</g>
		<g>
			<path class="st15" d="M182.87,314.22c18.38,22.39,12.89,57.29,12.89,57.29s-35.3-1.39-53.69-23.78
				c-18.38-22.39-12.88-57.29-12.88-57.29S164.48,291.83,182.87,314.22z"/>
			<g>
				<path class="st13" d="M132.06,293.63c20.64,25.13,41.28,50.27,61.92,75.4c0.3,0.37,0.88-0.1,0.58-0.47
					c-20.64-25.13-41.28-50.27-61.92-75.4C132.33,292.79,131.76,293.26,132.06,293.63L132.06,293.63z"/>
			</g>
			<g>
				<path class="st13" d="M131.68,307.69c4.41,0.44,8.82,0.89,13.23,1.33c0.48,0.05,0.55-0.69,0.07-0.74
					c-4.41-0.44-8.82-0.89-13.23-1.33C131.28,306.9,131.21,307.64,131.68,307.69L131.68,307.69z"/>
			</g>
			<g>
				<path class="st13" d="M152.88,301.27c-0.49,5.01-0.98,10.02-1.48,15.03c-0.05,0.48,0.69,0.55,0.74,0.07
					c0.49-5.01,0.98-10.02,1.48-15.03C153.67,300.87,152.93,300.79,152.88,301.27L152.88,301.27z"/>
			</g>
			<g>
				<path class="st13" d="M140.49,329.34c7.52,0.72,15.04,1.45,22.55,2.17c0.48,0.05,0.55-0.69,0.07-0.74
					c-7.52-0.72-15.03-1.45-22.55-2.17C140.08,328.55,140.01,329.29,140.49,329.34L140.49,329.34z"/>
			</g>
			<g>
				<path class="st13" d="M174.52,318.87c-0.78,7.82-1.57,15.64-2.35,23.46c0.25,0.02,0.49,0.05,0.74,0.07
					c0.07-1.06,0.15-2.12,0.22-3.18c0.03-0.48-0.71-0.55-0.74-0.07c-0.07,1.06-0.15,2.12-0.22,3.18c-0.03,0.48,0.69,0.55,0.74,0.07
					c0.78-7.82,1.57-15.64,2.35-23.46C175.31,318.47,174.57,318.4,174.52,318.87L174.52,318.87z"/>
			</g>
			<g>
				<path class="st13" d="M157.63,352.54c8.06,0.82,16.13,1.64,24.19,2.46c0.48,0.05,0.55-0.69,0.07-0.74
					c-8.06-0.82-16.13-1.64-24.19-2.46C157.23,351.75,157.16,352.5,157.63,352.54L157.63,352.54z"/>
			</g>
		</g>
		<g>
			<path class="st15" d="M418.75,360.95c-22.39,18.38-57.29,12.88-57.29,12.88s1.39-35.3,23.78-53.69
				c22.39-18.38,57.29-12.88,57.29-12.88S441.13,342.57,418.75,360.95z"/>
			<g>
				<path class="st13" d="M439.33,310.15c-25.13,20.64-50.27,41.28-75.4,61.92c-0.37,0.3,0.1,0.88,0.47,0.58
					c25.13-20.64,50.27-41.28,75.4-61.92C440.18,310.42,439.7,309.84,439.33,310.15L439.33,310.15z"/>
			</g>
			<g>
				<path class="st13" d="M425.28,309.77c-0.44,4.41-0.89,8.82-1.33,13.23c-0.05,0.48,0.69,0.55,0.74,0.07
					c0.44-4.41,0.89-8.82,1.33-13.22C426.07,309.36,425.32,309.29,425.28,309.77L425.28,309.77z"/>
			</g>
			<g>
				<path class="st13" d="M431.69,330.97c-5.01-0.49-10.02-0.98-15.03-1.48c-0.48-0.05-0.55,0.69-0.07,0.74
					c5.01,0.49,10.02,0.98,15.03,1.48C432.1,331.76,432.17,331.02,431.69,330.97L431.69,330.97z"/>
			</g>
			<g>
				<path class="st13" d="M403.63,318.57c-0.72,7.52-1.45,15.04-2.17,22.55c-0.05,0.48,0.69,0.55,0.74,0.07
					c0.72-7.52,1.45-15.03,2.17-22.55C404.41,318.17,403.67,318.09,403.63,318.57L403.63,318.57z"/>
			</g>
			<g>
				<path class="st13" d="M414.09,352.6c-7.82-0.78-15.64-1.57-23.46-2.35c-0.02,0.25-0.05,0.49-0.07,0.74
					c1.06,0.07,2.12,0.15,3.18,0.22c0.48,0.03,0.55-0.71,0.07-0.74c-1.06-0.07-2.12-0.15-3.18-0.22c-0.48-0.03-0.55,0.69-0.07,0.74
					c7.82,0.79,15.64,1.57,23.46,2.35C414.49,353.39,414.57,352.65,414.09,352.6L414.09,352.6z"/>
			</g>
			<g>
				<path class="st13" d="M380.42,335.72c-0.82,8.06-1.64,16.13-2.46,24.19c-0.05,0.48,0.69,0.55,0.74,0.07
					c0.82-8.06,1.64-16.13,2.46-24.19C381.21,335.31,380.47,335.24,380.42,335.72L380.42,335.72z"/>
			</g>
		</g>
	</g>
	<g>
		<path class="st16" d="M378.18,244.51h-175.5c-5.26,0-9.52,4.26-9.52,9.52v109.16c0,5.26,4.26,9.52,9.52,9.52h175.5
			c5.26,0,9.52-4.26,9.52-9.52V254.02C387.7,248.77,383.44,244.51,378.18,244.51z"/>
		<rect x="200.68" y="252.77" class="st17" width="179.51" height="105.15"/>
		<path class="st18" d="M193.35,365.04c0.87,4.36,4.71,7.65,9.33,7.65h175.5c4.62,0,8.46-3.29,9.33-7.65H193.35z"/>
		<g>
			<g>
				<g>
					<path class="st19" d="M293.76,298.14l18.71-25.93l0.53,0.38c7.13,5.16,11.69,13.11,12.52,21.83l0.06,0.65L293.76,298.14z
						 M312.77,274.05l-16.24,22.5l27.62-2.65C323.22,286.03,319.11,278.86,312.77,274.05z"/>
				</g>
				<g>
					<path class="st19" d="M294.69,297.61l15.57-21.57l0.18,0.13c6.1,4.41,10.01,11.22,10.71,18.68l0.02,0.22L294.69,297.61z
						 M310.35,276.65l-14.74,20.43l25.08-2.41C319.95,287.49,316.19,280.95,310.35,276.65z"/>
				</g>
				<g>
					<g>
						<path class="st19" d="M314.77,295.57l-0.02-0.22l2.51-0.24c-0.08-0.83-0.21-1.67-0.39-2.48l0.21-0.05
							c0.19,0.85,0.32,1.73,0.4,2.61l0.01,0.11L314.77,295.57z"/>
					</g>
					<g>
						<path class="st19" d="M315.46,288.31c-0.62-1.38-1.38-2.71-2.26-3.94l0.18-0.13c0.9,1.24,1.66,2.58,2.29,3.98L315.46,288.31z"
							/>
					</g>
					<g>
						<path class="st19" d="M306.77,281.43l-0.18-0.13l1.6-2.22l0.09,0.06c0.71,0.51,1.4,1.07,2.04,1.67l-0.15,0.16
							c-0.61-0.56-1.27-1.1-1.94-1.59L306.77,281.43z"/>
					</g>
					<g>
						
							<rect x="298.84" y="288.18" transform="matrix(0.5845 -0.8114 0.8114 0.5845 -108.5645 364.5797)" class="st19" width="5.69" height="0.22"/>
					</g>
					<g>
						<polygon class="st19" points="294.92,297.48 296.6,295.15 296.77,295.28 295.38,297.21 297.75,296.98 297.77,297.2 						"/>
					</g>
					<g>
						<polygon class="st19" points="303.44,296.66 303.42,296.44 309.09,295.89 309.11,296.11 						"/>
					</g>
				</g>
			</g>
			<g>
				<g>
					<path class="st19" d="M285.8,333.25c-16.83,0-30.53-13.69-30.53-30.53c0-16.83,13.69-30.53,30.53-30.53
						c6.46,0,12.63,2,17.86,5.78l0.53,0.38l-17.01,23.57l28.94-2.78l0.06,0.66c0.09,0.99,0.14,1.98,0.14,2.92
						C316.32,319.56,302.63,333.25,285.8,333.25z M285.8,273.51c-16.11,0-29.21,13.1-29.21,29.21c0,16.11,13.1,29.21,29.21,29.21
						c16.11,0,29.21-13.1,29.21-29.21c0-0.69-0.03-1.41-0.08-2.14l-30.51,2.93l17.94-24.85
						C297.47,275.29,291.76,273.51,285.8,273.51z"/>
				</g>
				<g>
					<path class="st19" d="M285.8,328.85c-14.4,0-26.12-11.72-26.12-26.12c0-14.4,11.72-26.12,26.12-26.12
						c5.53,0,10.81,1.71,15.29,4.94l0.18,0.13l-15,20.78l25.52-2.45l0.02,0.22c0.08,0.85,0.12,1.69,0.12,2.5
						C311.92,317.13,300.2,328.85,285.8,328.85z M285.8,277.04c-14.16,0-25.68,11.52-25.68,25.68c0,14.16,11.52,25.68,25.68,25.68
						s25.68-11.52,25.68-25.68c0-0.73-0.03-1.48-0.1-2.24l-26.04,2.5l15.31-21.21C296.29,278.68,291.16,277.04,285.8,277.04z"/>
				</g>
				<g>
					<g>
						<polygon class="st19" points="285.57,302.86 287.25,300.53 287.43,300.66 286.03,302.59 288.41,302.37 288.43,302.58 						
							"/>
					</g>
					<g>
						
							<rect x="289.49" y="293.56" transform="matrix(0.5872 -0.8095 0.8095 0.5872 -117.0316 357.8698)" class="st19" width="5.69" height="0.22"/>
					</g>
					<g>
						<path class="st19" d="M297.42,286.81l-0.18-0.13l1.47-2.04c-0.68-0.49-1.39-0.94-2.11-1.34l0.11-0.19
							c0.76,0.43,1.51,0.9,2.22,1.42l0.09,0.06L297.42,286.81z"/>
					</g>
					<g>
						<path class="st19" d="M285,325.16c-1.69-0.06-3.38-0.31-5-0.74l0.06-0.21c1.61,0.43,3.28,0.68,4.96,0.73L285,325.16z
							 M290.05,324.77l-0.04-0.21c1.64-0.32,3.25-0.82,4.78-1.5l0.09,0.2C293.33,323.94,291.71,324.45,290.05,324.77z
							 M275.29,322.57c-1.49-0.79-2.89-1.75-4.17-2.86l0.14-0.17c1.27,1.1,2.66,2.05,4.13,2.83L275.29,322.57z M299.25,320.7
							l-0.13-0.17c1.34-1,2.57-2.16,3.65-3.44l0.17,0.14C301.84,318.52,300.6,319.69,299.25,320.7z M267.69,315.99
							c-1-1.37-1.85-2.84-2.51-4.39l0.2-0.09c0.66,1.53,1.5,3,2.49,4.35L267.69,315.99z M305.75,313.03l-0.19-0.1
							c0.77-1.49,1.37-3.06,1.78-4.68l0.21,0.05C307.13,309.94,306.52,311.53,305.75,313.03z M263.71,306.75
							c-0.24-1.32-0.36-2.67-0.36-4.03c0-0.34,0.01-0.68,0.02-1.02l0.22,0.01c-0.02,0.34-0.02,0.68-0.02,1.01
							c0,1.34,0.12,2.68,0.36,3.99L263.71,306.75z M264.38,296.76l-0.21-0.06c0.45-1.63,1.09-3.2,1.9-4.69l0.19,0.1
							C265.46,293.59,264.83,295.15,264.38,296.76z M269.13,288.02l-0.16-0.15c1.12-1.27,2.38-2.41,3.75-3.39l0.13,0.18
							C271.49,285.63,270.24,286.76,269.13,288.02z M277.22,282.21l-0.08-0.2c1.56-0.65,3.19-1.13,4.86-1.41l0.04,0.22
							C280.39,281.1,278.77,281.57,277.22,282.21z M291.98,281.37c-1.6-0.46-3.27-0.75-4.94-0.84l0.01-0.22
							c1.69,0.09,3.37,0.38,4.99,0.85L291.98,281.37z"/>
					</g>
					<g>
						<path class="st19" d="M308.24,303.22l-0.22,0c0-0.16,0-0.32,0-0.49c0-0.65-0.03-1.33-0.09-2.02l-2.51,0.24l-0.02-0.22
							l2.73-0.26l0.01,0.11c0.07,0.73,0.1,1.45,0.1,2.15C308.25,302.89,308.24,303.05,308.24,303.22z"/>
					</g>
					<g>
						<polygon class="st19" points="294.09,302.04 294.07,301.82 299.74,301.28 299.76,301.49 						"/>
					</g>
				</g>
			</g>
		</g>
		<g>
			<rect x="333.55" y="307.81" class="st19" width="6.58" height="23.21"/>
			<rect x="367.15" y="312.61" class="st19" width="6.59" height="18.42"/>
			<rect x="344.63" y="298.06" class="st19" width="6.56" height="32.96"/>
			<rect x="356.41" y="290.15" class="st19" width="6.68" height="40.87"/>
		</g>
		<g>
			<g>
				<path class="st19" d="M248.87,331.62h-40.8v-31.1h40.8V331.62z M209.26,330.43h38.42v-28.72h-38.42V330.43z"/>
			</g>
			<g>
				<rect x="215.26" y="300.91" class="st19" width="1.19" height="29.71"/>
			</g>
			<g>
				<rect x="208.39" y="305.23" class="st19" width="40.17" height="1.19"/>
			</g>
			<g>
				<rect x="223.71" y="300.91" class="st19" width="1.19" height="29.71"/>
			</g>
			<g>
				<rect x="232.16" y="300.91" class="st19" width="1.19" height="29.71"/>
			</g>
			<g>
				<rect x="240.61" y="300.91" class="st19" width="1.19" height="29.71"/>
			</g>
		</g>
		<g>
			<path class="st19" d="M215.23,279.24c-4.73,0-8.57,3.85-8.57,8.57s3.85,8.57,8.57,8.57c4.73,0,8.57-3.85,8.57-8.57
				S219.95,279.24,215.23,279.24z M215.23,280.35c4.11,0,7.46,3.34,7.46,7.46s-3.34,7.46-7.46,7.46c-4.11,0-7.46-3.34-7.46-7.46
				S211.11,280.35,215.23,280.35z"/>
			<path class="st19" d="M215.23,294.22c3.54,0,6.42-2.88,6.42-6.42c0-0.31-0.25-0.56-0.56-0.56s-0.56,0.25-0.56,0.56
				c0,2.92-2.38,5.3-5.3,5.3c-2.92,0-5.3-2.38-5.3-5.3s2.38-5.3,5.3-5.3c0.31,0,0.56-0.25,0.56-0.56c0-0.31-0.25-0.56-0.56-0.56
				c-3.54,0-6.42,2.88-6.42,6.42C208.81,291.35,211.69,294.22,215.23,294.22z"/>
			<path class="st19" d="M237.05,279.24c-4.73,0-8.57,3.85-8.57,8.57s3.85,8.57,8.57,8.57c4.73,0,8.57-3.85,8.57-8.57
				S241.78,279.24,237.05,279.24z M237.05,280.35c4.11,0,7.46,3.34,7.46,7.46s-3.35,7.46-7.46,7.46c-4.11,0-7.46-3.34-7.46-7.46
				S232.94,280.35,237.05,280.35z"/>
			<path class="st19" d="M237.04,294.22L237.04,294.22c0.06,0,0.11-0.05,0.11-0.11v-0.9c0-0.06-0.05-0.11-0.1-0.11l0,0
				c-2.77-0.1-5.14-2.23-5.29-5c-0.17-3.06,2.27-5.6,5.29-5.6c0.31,0,0.56-0.25,0.56-0.56c0-0.31-0.25-0.56-0.56-0.56
				c-3.72,0-6.71,3.18-6.39,6.96C230.93,291.63,233.75,294.12,237.04,294.22z"/>
		</g>
		<path class="st19" d="M356.22,342.21H237.43c-0.67,0-1.22-0.55-1.22-1.22l0,0c0-0.67,0.55-1.22,1.22-1.22h118.79
			c0.67,0,1.22,0.55,1.22,1.22l0,0C357.44,341.66,356.89,342.21,356.22,342.21z"/>
		<path class="st19" d="M356.22,349.23h-130.7c-0.67,0-1.22-0.55-1.22-1.22l0,0c0-0.67,0.55-1.22,1.22-1.22h130.7
			c0.67,0,1.22,0.55,1.22,1.22l0,0C357.44,348.68,356.89,349.23,356.22,349.23z"/>
		<path class="st20" d="M396.7,392.62H184.77c-5.57,0-10.09-4.52-10.09-10.09l0,0c0-5.57,4.52-10.09,10.09-10.09H396.7
			c5.57,0,10.09,4.52,10.09,10.09l0,0C406.79,388.1,402.27,392.62,396.7,392.62z"/>
	</g>
	<g>
		<g>
			<rect x="431.96" y="368.63" class="st21" width="2.09" height="24.01"/>
			<path class="st21" d="M441.69,371h-17.38c-1.65,0-2.99-1.34-2.99-2.99l0,0c0-1.65,1.34-2.99,2.99-2.99h17.38
				c1.65,0,2.99,1.34,2.99,2.99l0,0C444.68,369.66,443.34,371,441.69,371z"/>
			<path class="st21" d="M438.36,389.17h-10.71c-0.79,0-1.42,0.64-1.42,1.42v0.62c0,0.79,0.64,1.42,1.42,1.42h10.71
				c0.79,0,1.42-0.64,1.42-1.42v-0.62C439.78,389.81,439.14,389.17,438.36,389.17z"/>
		</g>
		<g>
			<path class="st22" d="M424.9,355.14l-13.56,13.28l-5.53,25.03l7.77,0.57c0,0,7.65-11.19,7.37-20.23c0,0,15.54-4.38,16.67-9.6
				C438.74,358.95,424.9,355.14,424.9,355.14z"/>
			<path class="st23" d="M413.95,393.93c0,0,1.29,3.59,0.46,5.21c-0.83,1.62-17.46-1.53-17.46-1.53s3.1-4.41,9.37-4.34
				L413.95,393.93z"/>
			<polygon class="st24" points="422.09,331.09 417.7,345.73 402.89,349.96 415.5,352.85 420.62,351.59 428.43,343.78 			"/>
			<g>
				<polygon class="st24" points="433.47,325.99 429.06,317.85 423.63,321.24 426,328.03 				"/>
				<path class="st25" d="M430.87,356.36l-8.54-16.46c-2.71-5.23-0.86-11.74,4.29-14.59c1.58-0.87,3.24-1.51,4.84-1.64
					c2.23-0.18,4.26,0.26,5.95,0.9c2.99,1.13,5.04,3.9,5.34,7.09c0.71,7.44,1.52,22.66-2.82,28.96L430.87,356.36z"/>
				<path class="st26" d="M431.43,354.01c-1.64-0.06-19.31,5.59-22.19,10.38c-2.88,4.79-16.11,28.32-16.11,28.32l7.4,2
					c0,0,16.11-13.55,18.17-25.13c0,0,25.07,1.2,25.89-5.59C445.4,357.21,441.7,354.41,431.43,354.01z"/>
				<g>
					<path class="st27" d="M436.1,312.45c0.05,1.94-1.2,3.98-2.62,5.3c-0.88,0.81-2.1,1.18-3.29,1.25c-1.2,0.07-2.39-0.14-3.57-0.35
						c1.59-0.9,2.11-2.95,2.1-4.78c-0.01-1.83-0.38-3.69,0.09-5.46c0.61-2.31,3.17-4.33,5.49-2.76c0.85,0.58,1.82-0.06,2.31,0.76
						C437.51,307.92,436.06,311.01,436.1,312.45z"/>
					<path class="st24" d="M418.24,307.78c2.73,3.47-0.49,9.36,2.41,12.69c1.54,1.78,4.4,1.98,6.48,0.88
						c2.08-1.1,3.45-3.22,4.22-5.45c1.25,0.58,3.25-0.58,3.25-1.96c0-1.37-1.67-2.44-2.92-1.87c0.51-3.18-1.47-6.54-4.51-7.61
						C424.12,303.39,419.84,304.99,418.24,307.78z"/>
					<path class="st27" d="M432.05,312.07c-1.25,0.42-2.44-0.79-3.07-1.94c-0.64-1.16-1.27-2.54-2.55-2.86
						c-1.42-0.35-2.7,0.81-4.03,1.42c-2.1,0.97-4.78,0.46-6.38-1.2c-1.6-1.67-1.99-4.37-0.94-6.42c0.66-1.28,2.17,0.17,3.55-0.22
						c0.84-0.24,1.68-0.49,2.53-0.73c2.88-0.83,5.97-1.66,8.8-0.68c1.76,0.61,3.22,1.85,4.63,3.07c0.98,0.85,2.02,1.78,2.33,3.04
						C437.29,307.02,433.5,311.58,432.05,312.07z"/>
				</g>
			</g>
			<path class="st24" d="M448.52,341.94l1.17,6.02c0.19,0.97,0.13,1.96-0.16,2.9l-0.59,1.9h-28.93l3.4-2.01l4.86-0.42l14.36-1.87
				l-2.5-7.08L448.52,341.94z"/>
			<path class="st28" d="M437.99,341.71c0,0-9.38-14.78-3.87-17.25c5.51-2.47,13.18,5.2,15.91,18.89L437.99,341.71z"/>
			<path class="st29" d="M400.53,394.72c0,0,0.64,3.77-0.47,5.21c-1.1,1.44-16.91-4.59-16.91-4.59s3.83-3.79,9.99-2.62
				L400.53,394.72z"/>
		</g>
		<g>
			<path class="st30" d="M450.53,360.27H350.38c-2.06,0-3.75-1.69-3.75-3.75l0,0c0-2.06,1.69-3.75,3.75-3.75h100.15
				c2.06,0,3.75,1.69,3.75,3.75l0,0C454.29,358.58,452.6,360.27,450.53,360.27z"/>
			<g>
				<path class="st30" d="M376.84,358.05c-0.52,0.52-0.55,1.35-0.06,1.85l45.44,45.44c0.49,0.49,1.32,0.47,1.85-0.06
					c0.52-0.52,0.55-1.35,0.06-1.85l-45.44-45.44C378.2,357.5,377.37,357.52,376.84,358.05z"/>
				<path class="st30" d="M424.07,358.05c0.52,0.52,0.55,1.35,0.06,1.85l-45.44,45.44c-0.49,0.49-1.32,0.47-1.85-0.06
					c-0.52-0.52-0.55-1.35-0.06-1.85l45.44-45.44C422.72,357.5,423.55,357.52,424.07,358.05z"/>
			</g>
		</g>
		<g>
			<path class="st31" d="M402.42,347.9l-7.04-21.2c-0.22-0.66-0.84-1.11-1.53-1.11h-34.87c-1.1,0-1.88,1.08-1.53,2.12l7.04,21.2
				c0.22,0.66,0.84,1.11,1.53,1.11h34.87C401.99,350.03,402.77,348.95,402.42,347.9z"/>
			<path class="st32" d="M416.72,351.17l-0.27-0.8c-0.17-0.52-0.66-0.88-1.22-0.88h-48.78c-0.87,0-1.49,0.86-1.22,1.69l0.27,0.8
				c0.17,0.52,0.66,0.88,1.22,0.88h48.78C416.38,352.85,416.99,352,416.72,351.17z"/>
		</g>
	</g>
	<g>
		<g>
			<path class="st33" d="M235.93,319.04c1.21-0.69,7.27,1.96,7.27,1.96c0.72,0.36,2.16,0.56,3.41,0.66v2.62
				c0,0.99,0.07,1.97,0.2,2.93c-2.77-0.48-5.03-1.24-5.03-1.24c-2.13,0-3.07-1.38-3.77-1.82
				C237.32,323.72,234.71,319.74,235.93,319.04z"/>
			<path class="st33" d="M338.6,342.28c-0.41-1.34-6.63-3.57-6.63-3.57c-0.77-0.23-1.96-1.08-2.93-1.86l-1.8,1.91
				c-0.68,0.72-1.4,1.39-2.15,1.99c2.35,1.55,4.5,2.55,4.5,2.55c1.55,1.46,3.18,1.1,3.99,1.27
				C334.37,344.73,339,343.62,338.6,342.28z"/>
			<path class="st33" d="M335.57,342.7c0.33,0.45,0.61,1.07,0.32,1.55c-0.16,0.27-0.48,0.42-0.79,0.46
				c-0.31,0.04-0.63-0.03-0.94-0.1c-0.68-0.18-1.36-0.44-1.88-0.92c-0.52-0.48-0.85-1.2-0.72-1.89
				C332.05,339.19,334.84,341.7,335.57,342.7z"/>
			<path class="st34" d="M289.73,298.43l-1.51,7.52c0,0-11.99,0.57-19.21,5.33c-7.23,4.76-17.63,9.7-23.8,10.22l-1.06,5.46
				c0,0,20.45,4.58,31.03-1.59l-2.12,32.61h33.85l-1.76-30.67c0,0,10.75,14.46,22.04,15.87l3.7-6.17c0,0-7.58-6.7-8.99-10.4
				c-1.41-3.7-10.26-17.92-24.26-19.09l-1.24-10.1L289.73,298.43z"/>
			<path class="st33" d="M291.76,312.51c4.04,1.17,7.21-2.56,8.59-4.59c-0.88-0.18-1.78-0.32-2.7-0.4l-1.24-10.1l-6.67,1.01
				l-1.51,7.52c0,0-0.72,0.03-1.9,0.16C286.74,308.08,288,311.42,291.76,312.51z"/>
			<path class="st35" d="M321.9,326.61c-1.32-3.46-9.12-16.08-21.56-18.7c-1.38,2.03-4.55,5.76-8.59,4.59
				c-3.75-1.09-5.01-4.42-5.43-6.41c-3.67,0.37-11.85,1.57-17.31,5.17c-7.23,4.76-17.63,9.7-23.8,10.22l-1.06,5.46
				c0,0,20.45,4.58,31.03-1.59l-2.12,32.61h33.85l-1.76-30.67c0,0,10.75,14.46,22.04,15.87l3.7-6.17
				C330.89,337.01,323.31,330.31,321.9,326.61z"/>
			<path class="st33" d="M285.6,286.74c0,0,0.1,13.59,2.2,14.77c2.1,1.18,10.68-1.9,10.68-1.9l0.28-7.08l-0.85-6.45L285.6,286.74z"
				/>
			<path class="st33" d="M296.33,295.36c0.18,1.38,1.45,2.36,2.84,2.17c1.38-0.18,2.36-1.45,2.17-2.84
				c-0.18-1.38-1.45-2.36-2.84-2.17C297.12,292.7,296.14,293.97,296.33,295.36z"/>
			<path class="st36" d="M298.5,293.09c-1.59-1.19-3.19-2.37-4.78-3.56c-0.93-0.69-1.91-1.4-3.06-1.53
				c-1.68-0.19-3.22,0.92-4.89,1.15c-2.12,0.29-4.35-1.02-5.12-3.01c-0.78-1.99-0.02-4.46,1.74-5.68c2.13-1.48,4.97-0.92,7.36-1.94
				c2.33-1,4.77-2.01,7.3-1.82c3.16,0.23,6.08,2.55,7.01,5.58c0.94,3.02,0.07,6.56,1.74,9.25c1.64,2.64,5.47,4.02,5.7,7.12
				c0.22,2.99-3.23,5.21-3.27,8.2c-0.03,1.8,1.19,3.36,1.69,5.08c0.55,1.91,0.16,4.07-1.03,5.66c-0.05,0.07-0.1,0.14-0.15,0.22
				c-2.52,4.21-8.41,4.69-11.3,0.72c-0.67-0.92-1.28-1.79-1.81-2.54c-1.57-2.23-2.75-6.28-2.57-9
				C293.38,302.13,295.42,296.91,298.5,293.09z"/>
			<path class="st33" d="M300.39,293.12c0,1.36-1.1,2.47-2.47,2.47c-1.36,0-2.47-1.1-2.47-2.47c0-1.36,1.11-2.47,2.47-2.47
				C299.29,290.65,300.39,291.75,300.39,293.12z"/>
			
				<rect x="235.57" y="301.23" transform="matrix(0.8644 -0.5028 0.5028 0.8644 -127.2643 161.578)" class="st37" width="0.73" height="31.03"/>
			<path class="st33" d="M238.54,321.43c-0.55,0.1-1.18,0.36-1.3,0.91c-0.07,0.31,0.05,0.64,0.26,0.88c0.2,0.24,0.48,0.42,0.75,0.57
				c0.62,0.34,1.29,0.62,2,0.62s1.44-0.29,1.82-0.88C243.51,321.29,239.76,321.2,238.54,321.43z"/>
		</g>
		<g>
			<path class="st38" d="M388.87,248.47h-57.21c-3.93,0-7.14,3.21-7.14,7.14v10.23v18.58l12.7-11.44h51.66
				c3.93,0,7.14-3.21,7.14-7.14v-10.23C396.01,251.69,392.79,248.47,388.87,248.47z"/>
			<g>
				<path class="st39" d="M353.04,254.95h-18.21c-0.46,0-0.83-0.38-0.83-0.84l0,0c0-0.46,0.38-0.84,0.83-0.84h18.21
					c0.46,0,0.84,0.38,0.84,0.84l0,0C353.88,254.57,353.5,254.95,353.04,254.95z"/>
				<path class="st39" d="M388.19,260.12h-53.36c-0.46,0-0.83-0.38-0.83-0.84l0,0c0-0.46,0.38-0.84,0.83-0.84h53.36
					c0.46,0,0.84,0.38,0.84,0.84l0,0C389.03,259.75,388.65,260.12,388.19,260.12z"/>
				<path class="st39" d="M388.19,266.71h-53.36c-0.46,0-0.83-0.38-0.83-0.84l0,0c0-0.46,0.38-0.84,0.83-0.84h53.36
					c0.46,0,0.84,0.38,0.84,0.84l0,0C389.03,266.33,388.65,266.71,388.19,266.71z"/>
			</g>
		</g>
	</g>
	<g>
		<g>
			<rect x="64.77" y="360.8" class="st40" width="134.13" height="31.82"/>
			
				<rect x="82.1" y="346.45" transform="matrix(-1.836970e-16 1 -1 -1.836970e-16 471.7354 281.6778)" class="st41" width="25.86" height="60.51"/>
			
				<rect x="83.06" y="347.74" transform="matrix(-1.836970e-16 1 -1 -1.836970e-16 470.4497 282.9643)" class="st2" width="21.38" height="57.94"/>
			<rect x="140.96" y="360.8" class="st42" width="41.94" height="31.82"/>
			<rect x="149.57" y="360.8" class="st40" width="5.88" height="31.82"/>
			<rect x="171.09" y="360.8" class="st40" width="5.88" height="31.82"/>
			<rect x="64.77" y="368.38" class="st43" width="56.03" height="0.96"/>
			<rect x="64.77" y="373.56" class="st43" width="56.03" height="0.96"/>
			<rect x="64.77" y="378.74" class="st43" width="56.03" height="0.96"/>
			<rect x="64.77" y="383.92" class="st43" width="56.03" height="0.96"/>
			<polygon class="st42" points="99.23,386.44 92.9,382.87 86.76,386.44 86.76,368.4 99.23,368.4 			"/>
		</g>
		<g>
			<path class="st44" d="M67.09,328.84c0-4.81,3.9-8.71,8.71-8.71h109.9v-1.89H75.47c-5.86,0-10.6,4.75-10.6,10.6
				c0,5.86,4.75,10.6,10.6,10.6h110.24v-1.89H75.81C71,337.56,67.09,333.66,67.09,328.84z"/>
			<path class="st2" d="M179,328.84c0-4.12,2.86-7.56,6.7-8.47v-0.24H75.81c-4.81,0-8.71,3.9-8.71,8.71c0,4.81,3.9,8.71,8.71,8.71
				h109.9v-0.24C181.87,336.41,179,332.96,179,328.84z"/>
			<path class="st43" d="M174.48,324.48H74.33c-0.38,0-0.69-0.31-0.69-0.69l0,0c0-0.38,0.31-0.69,0.69-0.69h100.14
				c0.38,0,0.69,0.31,0.69,0.69l0,0C175.17,324.17,174.86,324.48,174.48,324.48z"/>
			<path class="st43" d="M174.48,329.56H74.33c-0.38,0-0.69-0.31-0.69-0.69l0,0c0-0.38,0.31-0.69,0.69-0.69h100.14
				c0.38,0,0.69,0.31,0.69,0.69l0,0C175.17,329.25,174.86,329.56,174.48,329.56z"/>
			<path class="st43" d="M174.48,334.63H74.33c-0.38,0-0.69-0.31-0.69-0.69l0,0c0-0.38,0.31-0.69,0.69-0.69h100.14
				c0.38,0,0.69,0.31,0.69,0.69l0,0C175.17,334.32,174.86,334.63,174.48,334.63z"/>
		</g>
		<g>
			<rect x="56.76" y="339.42" class="st45" width="120.84" height="21.21"/>
			<g>
				<rect x="67.08" y="339.42" class="st46" width="2.85" height="21.21"/>
				<rect x="75.88" y="339.42" class="st46" width="2.85" height="21.21"/>
			</g>
			<g>
				<rect x="153.18" y="339.42" class="st46" width="2.85" height="21.21"/>
				<rect x="161.99" y="339.42" class="st46" width="2.85" height="21.21"/>
			</g>
			<rect x="87.09" y="345.13" class="st46" width="54.79" height="9.78"/>
		</g>
		<polygon class="st47" points="166.17,343.17 158.56,339.48 151.4,343.17 151.4,322.87 166.17,322.87 		"/>
		<g>
			<rect x="61.23" y="306.55" class="st31" width="116.5" height="11.6"/>
			<rect x="164.59" y="306.55" class="st48" width="2.51" height="11.6"/>
			<rect x="158.52" y="306.55" class="st48" width="2.51" height="11.6"/>
			<rect x="104.58" y="310.81" class="st48" width="47.54" height="3.08"/>
			<rect x="61.23" y="306.55" class="st49" width="39.22" height="11.6"/>
			<rect x="61.23" y="307.89" class="st2" width="36.87" height="8.91"/>
			<g>
				<rect x="61.91" y="308.76" class="st43" width="35.45" height="0.65"/>
				<rect x="61.91" y="310.94" class="st43" width="35.45" height="0.65"/>
				<rect x="61.91" y="313.12" class="st43" width="35.45" height="0.65"/>
				<rect x="61.91" y="315.3" class="st43" width="35.45" height="0.65"/>
			</g>
		</g>
		<g>
			
				<rect x="34.41" y="301.05" transform="matrix(0.9775 0.2107 -0.2107 0.9775 73.9767 -1.3673)" class="st34" width="17.98" height="90.68"/>
			
				<rect x="34.26" y="370.64" transform="matrix(0.2108 -0.9775 0.9775 0.2108 -342.5066 335.0285)" class="st50" width="3.94" height="17.98"/>
			
				<rect x="36.34" y="361.01" transform="matrix(0.2108 -0.9775 0.9775 0.2108 -331.4477 329.4483)" class="st50" width="3.94" height="17.98"/>
			
				<rect x="40.32" y="309.19" transform="matrix(0.9775 0.2108 -0.2108 0.9775 71.7522 -2.1028)" class="st50" width="10.84" height="52.73"/>
		</g>
		<path class="st51" d="M105.82,306.08c-1.94,1.71-3.73,4.25-3.47,7.74c0.55,7.33,12.04,24.18,12.04,24.18s-5.74,3.42-5.2,6.35
			l13.13-3.66c0,0,0.27-0.73-1.91-2.69c0,0-4.1-20.02-0.55-22.71c0.02-0.01,0.03-0.02,0.05-0.04c2.81-2.09,6.94-2.09,9.75,0
			c0.02,0.01,0.03,0.02,0.05,0.04c3.51,2.65-0.44,22.2-0.54,22.69c-0.01,0.01-0.02,0.01-0.03,0.02c-2.19,1.95-1.91,2.69-1.91,2.69
			l13.13,3.66c0.55-2.93-5.2-6.35-5.2-6.35h0.03c0,0,11.49-16.85,12.03-24.18c0.26-3.49-1.53-6.03-3.47-7.74H105.82z"/>
		<g>
			<path class="st52" d="M114.39,336.54c0,0-5.74,3.83-5.2,7.11l13.13-4.1c0,0,0.27-0.82-1.91-3.01
				C118.22,334.35,114.39,336.54,114.39,336.54z"/>
			<path class="st52" d="M135.15,336.54c0,0,5.74,3.83,5.2,7.11l-13.13-4.1c0,0-0.27-0.82,1.92-3.01
				C131.32,334.35,135.15,336.54,135.15,336.54z"/>
			<path class="st53" d="M139.28,297.7l-11.21-3.11v-1.82l-3.28,0.91l-3.28-0.91v1.82l-11.21,3.11c0,0-8.48,3.56-7.93,11.76
				c0.55,8.21,12.04,27.08,12.04,27.08h6.02c0,0-4.1-22.43-0.55-25.44c0.02-0.01,0.03-0.03,0.05-0.04c2.81-2.34,6.94-2.34,9.75,0
				c0.02,0.01,0.03,0.03,0.05,0.04c3.56,3.01-0.55,25.44-0.55,25.44h6.02c0,0,11.49-18.87,12.04-27.08
				C147.76,301.25,139.28,297.7,139.28,297.7z"/>
			<path class="st35" d="M136.82,263.78c0,0-2.01-4.03-6.63-5.79c-0.38,2.65-2.65,4.69-5.41,4.69c-2.76,0-5.03-2.04-5.41-4.69
				c-4.61,1.76-6.63,5.79-6.63,5.79l-4.92,35.29h16.96h16.96L136.82,263.78z"/>
			<path class="st24" d="M105.36,274.72c0,0-2.74,9.03-1.09,14.77c1.64,5.74,10.39,8.75,10.39,8.75l0.27-6.56
				c0,0-6.02-4.65-3.01-15.59L105.36,274.72z"/>
			<path class="st35" d="M119.38,257.99c0,0-12.64,3.87-15.65,17.82l10.67,3.28L119.38,257.99z"/>
			<path class="st24" d="M144.54,274.72c0,0,2.73,9.03,1.09,14.77c-1.64,5.74-10.39,8.75-10.39,8.75l-0.27-6.56
				c0,0,6.02-4.65,3.01-15.59L144.54,274.72z"/>
			<path class="st35" d="M130.53,257.99c0,0,12.64,3.87,15.65,17.82l-10.67,3.28L130.53,257.99z"/>
			<polygon class="st54" points="140.65,300.61 111.66,300.61 109.74,284.29 143.07,284.29 			"/>
			<g>
				<path class="st55" d="M114.19,246.86c0.89,1.11,0.52,2.73,0.12,4.1c-0.39,1.37-0.7,3.03,0.27,4.07
					c0.58,0.63,1.53,0.89,1.97,1.63c0.5,0.85,0.11,1.95,0.33,2.91c0.26,1.18,1.41,1.99,2.59,2.22c1.18,0.23,2.4,0,3.58-0.22
					c-1.11-3.67-2.06-7.3-3.17-10.97c-0.36-1.2-0.75-2.44-1.57-3.39S115.35,246.37,114.19,246.86z"/>
				<path class="st55" d="M135.88,246.86c-0.89,1.11-0.52,2.73-0.12,4.1c0.39,1.37,0.7,3.03-0.27,4.07
					c-0.58,0.63-1.53,0.89-1.97,1.63c-0.5,0.85-0.11,1.95-0.33,2.91c-0.26,1.18-1.41,1.99-2.59,2.22c-1.18,0.23-2.4,0-3.58-0.22
					c1.11-3.67,2.06-7.3,3.17-10.97c0.36-1.2,0.75-2.44,1.57-3.39C132.59,246.26,134.73,246.37,135.88,246.86z"/>
				<path class="st24" d="M117.54,253.28l0.33-0.06c-0.79-0.35-1.82,0.07-2.15,0.86c-0.33,0.79,0.1,1.82,0.9,2.14
					c0.8,0.32,1.82-0.13,2.12-0.93C119.05,254.44,118.44,253.34,117.54,253.28z"/>
				<path class="st24" d="M133.42,253.28l0.33-0.06c-0.79-0.35-1.82,0.07-2.15,0.86c-0.33,0.79,0.1,1.82,0.9,2.14
					c0.8,0.32,1.82-0.13,2.12-0.93C134.93,254.44,134.32,253.34,133.42,253.28z"/>
				<path class="st24" d="M134.14,247.43l-8.72,1.73l-8.72-1.73c0,0-1.01,2.59,1.34,9.23c1.36,3.84,3.62,6.03,5.28,7.2
					c1.26,0.89,2.94,0.89,4.2,0c1.66-1.17,3.92-3.37,5.28-7.2C135.14,250.02,134.14,247.43,134.14,247.43z"/>
				<path class="st55" d="M117.06,253.08c1.52-0.91,2.23-2.4,2.62-4.12c0.04-0.2,0.3-0.25,0.41-0.08c1.43,2.31,4.84,3.48,7.26,2.26
					c0.82-0.41,1.52-1.03,2.29-1.54c0.77-0.51,1.65-0.93,2.57-0.87c0.92,0.06,2,1.37,2.07,2.28c1.01-0.95,1.85-3.23,1.67-4.6
					c-0.18-1.37-0.56-3.6-1.78-4.26c-1.37-0.73-2.26-2.25-3.64-2.96c-1.56-0.8-3.85,0.05-5.44-0.69c-1.32-0.62-2.9-0.52-4.26,0.01
					c-1.36,0.53-3.34,3.11-4.42,4.1c-1.85,1.68-2.76,2.07-3.12,4.54C112.91,249.64,114.59,252.7,117.06,253.08z"/>
			</g>
		</g>
	</g>
</g>
<g id="DESIGNED_BY_FREEPIK" class="st0">
</g>
</svg>
